<svg viewBox="0 0 47 57" fill="none" xmlns="http://www.w3.org/2000/svg">

<path d="M35.9499 0C29.8738 0 24.9492 6.3005 24.9492 13.4116C24.9492 17.7395 26.913 21.5559 29.3132 23.9321C31.4197 26.0195 32.7138 27.6269 32.9723 31.1145V54.1108C32.9723 55.7059 34.2211 57.0001 35.7603 57.0001H36.138C37.6771 57.0001 38.9259 55.7059 38.9259 54.1108V31.1144C39.1843 27.6267 40.4784 26.0194 42.585 23.932C44.9852 21.5558 46.949 17.7394 46.949 13.4115C46.9488 6.3005 42.0225 0 35.9499 0Z" fill="#4B4B4B"/>
<path d="M16.2588 2.7335V14.91C16.2588 15.6875 15.6512 16.319 14.9009 16.319H14.5366C13.788 16.319 13.1787 15.6875 13.1787 14.91V2.67784C13.1787 0.672152 11.8762 0.0703125 10.6257 0.0703125C9.37691 0.0703125 8.07442 0.672152 8.07442 2.67784V14.91C8.07442 15.6875 7.46512 16.319 6.71488 16.319H6.35233C5.6021 16.319 4.99441 15.6875 4.99441 14.91V2.7335C4.99441 -0.858609 0.0530091 -0.736816 0.0530091 2.77347C0.0530091 6.97611 0.0530091 14.4004 0.0530091 14.4004C0.0294837 20.8574 1.51835 22.5325 3.97563 24.5451C5.95627 26.1664 7.64978 27.0918 7.64978 31.1169V54.1114C7.64978 55.7065 8.89684 57.0007 10.4377 57.0007H10.8154C12.3545 57.0007 13.6033 55.7065 13.6033 54.1114V31.1169C13.6033 27.0918 15.2952 26.1663 17.2758 24.5451C19.7348 22.5325 21.2236 20.8574 21.2001 14.4004C21.2001 14.4004 21.2001 6.97611 21.2001 2.77347C21.2002 -0.736816 16.2588 -0.858609 16.2588 2.7335Z" fill="#4B4B4B"/>
</svg>
