<svg width="38" height="40" viewBox="0 0 38 40" fill="none" xmlns="http://www.w3.org/2000/svg">
<path d="M36.5109 5.21461C35.4978 3.7693 33.6572 2.45555 30.8257 1.51906C27.9895 0.58125 24.1507 0.00125 18.9993 0C12.1342 0.00375 7.59029 1.02867 4.66725 2.57227C3.2086 3.34414 2.163 4.25227 1.48754 5.21461C0.812067 6.1757 0.514224 7.18344 0.51563 8.12422V28.3798C0.51563 31.6342 3.68054 34.2741 7.59019 34.2753H9.67107L4.77929 40H8.68904L9.86288 38.4152H28.1356L29.3094 40H33.2206L28.3287 34.2753H30.4097C34.3193 34.2741 37.4828 31.6342 37.4843 28.3798V8.12422C37.4843 7.18344 37.1863 6.1757 36.5109 5.21461ZM10.9956 36.8863L12.1945 35.269H25.8053L27.0044 36.8863H10.9956ZM35.219 28.3798C35.2176 29.4884 34.6822 30.4852 33.8106 31.2133C32.9375 31.9402 31.7415 32.387 30.4097 32.3876H7.59029C6.25857 32.387 5.06251 31.9402 4.18941 31.2133C3.31632 30.4852 2.78091 29.4884 2.78091 28.3798V8.12422C2.78091 7.51039 2.96972 6.8443 3.44316 6.16773C4.15397 5.15687 5.53004 4.09688 8.01057 3.27406C10.4867 2.4525 14.0528 1.88711 18.9993 1.88844C25.5989 1.88531 29.7312 2.89562 32.1175 4.16516C33.3136 4.79984 34.0805 5.49187 34.5554 6.16781C35.0303 6.84437 35.2177 7.51047 35.2191 8.1243V28.3798H35.219Z" fill="#4B4B4B"/>
<path d="M12.7104 7.93133H25.2874C26.1236 7.93133 26.802 7.36719 26.802 6.66914C26.802 5.97297 26.1236 5.4082 25.2874 5.4082H12.7104C11.8742 5.4082 11.1973 5.97297 11.1973 6.66914C11.1973 7.36719 11.8742 7.93133 12.7104 7.93133Z" fill="#4B4B4B"/>
<path d="M10.001 29.0193C11.0436 29.0193 11.8888 28.315 11.8888 27.4462C11.8888 26.5774 11.0436 25.873 10.001 25.873C8.95846 25.873 8.11328 26.5774 8.11328 27.4462C8.11328 28.315 8.95846 29.0193 10.001 29.0193Z" fill="#4B4B4B"/>
<path d="M27.9991 29.0193C29.0417 29.0193 29.8868 28.315 29.8868 27.4462C29.8868 26.5774 29.0417 25.873 27.9991 25.873C26.9565 25.873 26.1113 26.5774 26.1113 27.4462C26.1113 28.315 26.9565 29.0193 27.9991 29.0193Z" fill="#4B4B4B"/>
<path d="M17.4541 12.0059H7.37695V19.687H17.4541V12.0059Z" fill="#4B4B4B"/>
<path d="M30.6227 12.0059H20.0957V19.687H30.6227V12.0059Z" fill="#4B4B4B"/>
</svg>
