<svg width="32" height="30" viewBox="0 0 32 30" fill="none" xmlns="http://www.w3.org/2000/svg">
<g clip-path="url(#clip0_1_2376)">
<path d="M16.3877 13.1426H16.0937H9.87693L4.91699 19.5376L16.2949 30.0002L16.7637 29.569L27.6719 19.5376L22.7129 13.1426H16.3877ZM21.6133 14.3996L20.6973 18.2146L17.4561 14.3996H21.6133ZM16.249 14.763L19.7754 18.9113H12.7979L16.249 14.763ZM15.0469 14.3996L11.8867 18.199V18.2L10.9765 14.3996H15.0469V14.3996ZM9.94924 15.1851L10.8428 18.9113H7.05862L9.94924 15.1851ZM11.2031 20.0246L14.3321 26.436L7.35937 20.0246H11.2031ZM16.2949 27.7837L12.5078 20.0246H20.0811L16.2949 27.7837ZM18.2568 26.436L21.3857 20.0246H25.2285L18.2568 26.436ZM21.7461 18.9113L22.6407 15.1851L25.5303 18.9113H21.7461Z" fill="#F7F3EB"/>
<path d="M31.3262 10.6588C29.7071 10.6588 29.1475 10.2779 28.8321 9.98312C28.5186 9.6874 28.1114 9.16281 28.1114 7.64488C28.1114 7.58723 28.1055 7.42334 27.9122 7.42334C27.7198 7.42334 27.7129 7.58723 27.7129 7.64488C27.7129 9.16281 27.3057 9.6874 26.9912 9.98312C26.6758 10.2779 26.1152 10.6588 24.498 10.6588C24.4355 10.6588 24.2617 10.6652 24.2617 10.8464C24.2617 11.0268 24.4355 11.0332 24.498 11.0332C26.1152 11.0332 26.6758 11.415 26.9912 11.7098C27.3057 12.0046 27.7129 12.5301 27.7129 14.0481C27.7129 14.1067 27.7197 14.2687 27.9122 14.2687C28.1055 14.2687 28.1114 14.1067 28.1114 14.0481C28.1114 12.5301 28.5187 12.0046 28.8321 11.7098C29.1475 11.4141 29.7071 11.0332 31.3262 11.0332C31.3887 11.0332 31.5625 11.0277 31.5625 10.8456C31.5625 10.6661 31.3887 10.6588 31.3262 10.6588Z" fill="#F7F3EB"/>
<path d="M7.2432 4.96031C9.46876 4.96031 10.2383 5.48584 10.6709 5.89049C11.1036 6.29607 11.6621 7.01842 11.6621 9.10488C11.6621 9.18451 11.6739 9.40793 11.9375 9.40793C12.2031 9.40793 12.2109 9.18451 12.2109 9.10488C12.2109 7.01842 12.7705 6.29602 13.2031 5.89049C13.6348 5.4849 14.4043 4.96031 16.6309 4.96031C16.7158 4.96031 16.9551 4.95299 16.9551 4.70397C16.9551 4.45676 16.7159 4.4458 16.6309 4.4458C14.4043 4.4458 13.6348 3.92209 13.2031 3.51744C12.7705 3.11092 12.2109 2.39045 12.2109 0.303926C12.2109 0.224297 12.2031 0 11.9375 0C11.6738 0 11.6621 0.224297 11.6621 0.303984C11.6621 2.39045 11.1035 3.11098 10.6709 3.5175C10.2383 3.92215 9.46882 4.44586 7.2432 4.44586C7.15826 4.44586 6.91895 4.45594 6.91895 4.70402C6.91895 4.95117 7.1582 4.96031 7.2432 4.96031Z" fill="#F7F3EB"/>
<path d="M7.15331 11.4845C7.15331 11.3188 6.99312 11.3124 6.9365 11.3124C5.44725 11.3124 4.93162 10.9617 4.64256 10.6907C4.3535 10.4188 3.9785 9.93635 3.9785 8.54018C3.9785 8.48709 3.97263 8.33691 3.79487 8.33691C3.61906 8.33691 3.61125 8.48709 3.61125 8.54018C3.61125 9.93635 3.23725 10.4189 2.94819 10.6907C2.65813 10.9617 2.1425 11.3124 0.65425 11.3124C0.596688 11.3124 0.4375 11.3188 0.4375 11.4845C0.4375 11.6502 0.596687 11.6567 0.654312 11.6567C2.14262 11.6567 2.65825 12.0082 2.94825 12.2792C3.23731 12.5502 3.61131 13.0336 3.61131 14.4307C3.61131 14.4838 3.61913 14.633 3.79494 14.633C3.97269 14.633 3.97856 14.4838 3.97856 14.4307C3.97856 13.0336 4.35356 12.5502 4.64262 12.2792C4.93169 12.0073 5.44731 11.6567 6.93656 11.6567C6.99319 11.6567 7.15331 11.6512 7.15331 11.4845Z" fill="#F7F3EB"/>
</g>
<defs>
<clipPath id="clip0_1_2376">
<rect width="32" height="30" fill="white"/>
</clipPath>
</defs>
</svg>
