<svg width="48" height="48" viewBox="0 0 48 48" fill="none" xmlns="http://www.w3.org/2000/svg">
<g clip-path="url(#clip0_332_339)">
<path d="M29.6059 36.0629C29.5101 35.838 29.5385 35.4673 29.5864 35.1814C29.9161 33.2357 30.5291 31.7829 31.2433 30.6952C29.8787 29.1541 28.3842 28.9251 28.3113 28.9154L28.0295 28.8828C27.5338 30.1642 26.7703 31.8863 26.2088 33.4627C26.0435 33.9257 25.8165 34.3998 25.5479 34.5886C25.2793 34.7774 24.6604 34.8885 24.137 35.0412C21.6919 35.7548 19.9051 38.0122 19.9063 40.6874C19.9063 43.9346 22.5391 46.5682 25.7866 46.5682C29.0338 46.5682 31.6667 43.9361 31.6667 40.6882C31.6675 39.0812 31.0225 37.627 29.9778 36.5642C29.8017 36.3865 29.7023 36.2865 29.6059 36.0629ZM25.7867 43.8665C24.0312 43.8665 22.6079 42.4428 22.6079 40.6873C22.6079 38.9325 24.0312 37.5088 25.7867 37.5088C27.5428 37.5081 28.9659 38.9311 28.9652 40.6873C28.9651 42.4428 27.5415 43.8665 25.7867 43.8665Z" fill="#343A40"/>
<path d="M43.2007 44.2246C43.9427 43.2396 44.3822 42.0158 44.3835 40.688C44.3828 38.0127 42.5962 35.7553 40.1507 35.0418C39.6279 34.8891 39.0095 34.778 38.7401 34.5892C38.4722 34.3997 38.2452 33.927 38.08 33.4632C37.2699 31.1906 36.0385 28.6084 35.8004 27.4964C35.8004 27.4964 34.2115 6.357 33.8929 3.65466C33.575 0.953064 33.0988 1.5513e-06 32.1443 1.5513e-06C31.1913 -0.0014047 30.7137 0.953064 30.3958 3.65466C30.0793 6.357 28.4883 27.4964 28.4883 27.4964C28.4883 27.4964 33.4952 28.0517 34.7016 35.1819C34.7501 35.4679 34.778 35.8393 34.6814 36.0635C34.5863 36.2877 34.4864 36.3869 34.3101 36.5661C33.2668 37.6267 32.6212 39.0816 32.6212 40.6879C32.622 43.9365 35.2541 46.5686 38.502 46.5686C39.6127 46.5686 40.6518 46.2604 41.5389 45.7245C43.5505 47.5377 45.2297 48 45.2297 48L46.1834 46.2508C44.7354 45.8169 43.4235 44.464 43.2007 44.2246ZM32.1443 26.5427C31.53 26.5427 31.0323 26.0443 31.0323 25.43C31.0323 24.8156 31.5307 24.3173 32.1443 24.3179C32.7586 24.3179 33.2563 24.8156 33.2563 25.43C33.2578 26.0436 32.7587 26.5427 32.1443 26.5427ZM38.502 43.867C36.7465 43.867 35.3228 42.4433 35.3235 40.6886C35.3242 38.9318 36.7465 37.5094 38.5012 37.5094C40.2575 37.5086 41.6812 38.9317 41.6805 40.6886C41.6805 42.4441 40.2582 43.8664 38.502 43.867Z" fill="#343A40"/>
<path d="M13.7896 0.425781H3.0748C2.38208 0.425781 1.81836 0.989406 1.81836 1.68213V4.18666C1.81836 4.76828 2.2917 5.24172 2.87342 5.24172H10.5527C11.5498 5.24172 12.3613 6.05387 12.3613 7.05203C12.3613 8.04887 11.5498 8.85962 10.5527 8.85962H2.87352C2.2918 8.85962 1.81845 9.33306 1.81845 9.91469V11.0239C1.81845 11.6057 2.2918 12.0791 2.87352 12.0791H10.5528C11.5499 12.0791 12.3614 12.8905 12.3614 13.888C12.3614 14.8855 11.5499 15.6969 10.5528 15.6969H2.87352C2.2918 15.6969 1.81845 16.1703 1.81845 16.7521V17.8627C1.81845 18.4444 2.2918 18.9178 2.87352 18.9178H10.5528C11.5499 18.9178 12.3614 19.7293 12.3614 20.7267C12.3614 21.7234 11.5499 22.5343 10.5528 22.5343H2.87352C2.2918 22.5343 1.81845 23.0077 1.81845 23.5893V24.7C1.81845 25.2817 2.2918 25.7552 2.87352 25.7552H10.5528C11.5499 25.7552 12.3614 26.5659 12.3614 27.5627C12.3614 28.5602 11.5499 29.3716 10.5528 29.3716H2.87352C2.2918 29.3716 1.81845 29.845 1.81845 30.4267V31.5374C1.81845 32.119 2.2918 32.5924 2.87352 32.5924H10.5528C11.5499 32.5924 12.3614 33.4039 12.3614 34.4013C12.3614 35.3981 11.5499 36.2089 10.5528 36.2089H2.87352C2.2918 36.2089 1.81845 36.6824 1.81845 37.264V38.3747C1.81845 38.9564 2.2918 39.4297 2.87352 39.4297H10.5528C11.5499 39.4297 12.3614 40.2405 12.3614 41.2373C12.3614 42.2348 11.5499 43.0462 10.5528 43.0462H2.87352C2.2918 43.0462 1.81845 43.5197 1.81845 44.1014V46.3199C1.81845 47.0127 2.38208 47.5762 3.07489 47.5762H13.7896C15.5937 47.5762 17.0612 46.1081 17.0612 44.3041V3.69794C17.0612 1.89381 15.5937 0.425781 13.7896 0.425781Z" fill="#343A40"/>
</g>
<defs>
<clipPath id="clip0_332_339">
<rect width="48" height="48" fill="white"/>
</clipPath>
</defs>
</svg>
