<svg width="48" height="48" viewBox="0 0 48 48" fill="none" xmlns="http://www.w3.org/2000/svg">
<path d="M47.7685 27.0408C47.5986 26.5076 47.3467 26.0198 47.0347 25.5921C46.9834 25.5174 46.935 25.4544 46.8779 25.3856C46.7783 25.223 46.6641 25.0721 46.5322 24.9226L45.7558 24.2385L42.2285 21.1375L40.33 19.4705L43.9511 16.2611C44.4961 15.7777 44.5459 14.9457 44.0639 14.4007C43.5878 13.8543 42.7543 13.8045 42.2079 14.2864L38.3348 17.7156L27.394 27.3983C26.7041 28.0062 25.8266 28.3314 24.9229 28.3314C24.6607 28.3314 24.3984 28.3065 24.1348 28.2494L17.8799 26.865L10.3271 25.1981L5.03316 24.0262L4.27434 23.8577C4.03556 23.7757 3.82312 23.6687 3.63562 23.5311C3.33384 23.3114 3.09656 23.0301 2.9325 22.7035C2.76403 22.3783 2.67469 22.0136 2.67469 21.6444C2.67469 21.4188 2.71275 21.18 2.78306 20.9486C2.86509 20.6981 2.98228 20.4725 3.12731 20.2733C3.34116 19.9715 3.62831 19.7327 3.95353 19.5702C4.27434 19.4017 4.63762 19.3124 5.00672 19.3124C5.06972 19.3124 5.13272 19.3197 5.19422 19.3197L10.6537 20.4975L23.3143 23.2367C24.8802 23.581 26.5164 23.1547 27.7191 22.0898L35.5018 15.2343L43.45 8.23383C44.1649 7.59951 44.4652 6.62245 44.2206 5.70108C43.9833 4.7738 43.242 4.06486 42.3089 3.86414L41.3186 3.6517L34.0984 2.0902L24.9551 0.117045C23.3892 -0.227205 21.753 0.197576 20.5504 1.26398L8.33494 11.994L4.66256 15.221L1.46775 18.0291C1.33444 18.1785 1.22166 18.3294 1.122 18.492C1.06491 18.5609 1.01503 18.6239 0.96525 18.6986C0.65175 19.1264 0.40125 19.6141 0.231375 20.1473C0.0762187 20.6424 0 21.1493 0 21.6444C0 22.7167 0.34425 23.7376 0.952125 24.577C1.25972 25.0033 1.62891 25.3798 2.0625 25.6932C2.48728 26.0067 2.97656 26.2572 3.50981 26.4197L3.5655 26.4388L9.13781 27.6604L10.2159 28.6199L10.0577 28.7576L6.38681 31.9861L3.19041 34.7928C3.05859 34.9437 2.94581 35.0946 2.84466 35.2572C2.78897 35.326 2.73919 35.389 2.68941 35.4637C2.37591 35.89 2.124 36.3778 1.95553 36.911C1.79878 37.4061 1.72266 37.9144 1.72266 38.4095C1.72266 39.4803 2.06841 40.5014 2.67478 41.3421C2.98237 41.7684 3.35156 42.1449 3.78516 42.4583C4.21144 42.7718 4.70072 43.0223 5.23247 43.1849L5.28816 43.2039L10.8605 44.4255L16.1383 45.5784L25.3009 47.5838C25.7462 47.6834 26.1959 47.7288 26.6485 47.7288C28.1837 47.7288 29.6808 47.1765 30.8585 46.1424L31.172 45.867L42.0529 36.2341L45.6755 33.0247C45.838 32.8812 45.9523 32.7127 46.0255 32.5237C46.4211 32.2234 46.7667 31.8659 47.048 31.4705C47.6544 30.6312 48.0001 29.6101 48.0001 28.5379C48 28.0428 47.9239 27.536 47.7685 27.0408ZM40.0606 34.4793L29.1167 44.1619C28.4268 44.7713 27.5508 45.0965 26.6484 45.0965C26.3847 45.0965 26.1211 45.0702 25.8574 45.0145L19.604 43.6288L12.0527 41.9618L6.75581 40.7914L5.997 40.6215C5.75972 40.5394 5.54578 40.4339 5.35828 40.2948C5.058 40.0766 4.81922 39.7938 4.65516 39.4686C4.48669 39.142 4.39884 38.7787 4.39884 38.4095C4.39884 38.184 4.43691 37.9452 4.50581 37.7138C4.58784 37.4633 4.70653 37.2377 4.85156 37.037C5.064 36.7352 5.35256 36.4979 5.67778 36.3354C5.99709 36.1654 6.36037 36.0776 6.73097 36.0776C6.79397 36.0776 6.85547 36.0835 6.91847 36.0835L12.3779 37.2627L25.0371 40.0005C26.6045 40.3462 28.2392 39.9199 29.4433 38.8535L32.8271 35.8769L40.3418 34.229L40.0606 34.4793ZM45.0674 29.5985C44.9033 29.9237 44.6661 30.2064 44.3643 30.4247C44.1768 30.5624 43.9629 30.6693 43.7256 30.7514L36.9375 32.2543L23.8653 35.1444C23.6075 35.2001 23.3379 35.2249 23.0757 35.2249C22.1734 35.2249 21.296 34.8997 20.606 34.2918L14.4141 28.8148L23.5766 30.8202C24.0219 30.9198 24.4732 30.9637 24.9228 30.9637C26.4594 30.9637 27.9579 30.4129 29.1357 29.3773L29.4492 29.1018L42.8101 26.2131C42.8731 26.2131 42.9302 26.2072 42.9932 26.2072C43.2305 26.2072 43.4619 26.2439 43.6817 26.3142C43.8077 26.3508 43.9322 26.4006 44.0509 26.4636C44.3717 26.6262 44.6603 26.865 44.88 27.1667C45.0235 27.366 45.1349 27.5915 45.2169 27.842C45.2917 28.0749 45.3253 28.3123 45.3253 28.5378C45.3252 28.9085 45.2344 29.2718 45.0674 29.5985Z" fill="#4B4B4B"/>
</svg>
