<svg width="48" height="48" viewBox="0 0 48 48" fill="none" xmlns="http://www.w3.org/2000/svg">
<g clip-path="url(#clip0_332_336)">
<path d="M32.4187 4.55833C32.2383 4.49158 32.0471 4.70177 32.0471 4.8379C32.0471 8.81955 28.4443 12.0471 24 12.0471C19.5557 12.0471 15.9529 8.81946 15.9529 4.8379C15.9529 4.70187 15.843 4.4763 15.5704 4.5618C15.2977 4.6473 0 9.44299 0 9.44299V16.6183V22.8966C0 23.3516 0.370031 23.7131 0.815344 23.7131C0.841031 23.7131 0.866812 23.7119 0.892969 23.7095L8.41884 23.0017C8.47284 22.9966 8.52647 22.9941 8.57963 22.9941C9.50138 22.9941 10.2671 23.7426 10.2671 24.6842V43.4563H37.733V24.6843C37.733 23.7428 38.4989 22.9942 39.4203 22.9942C39.4733 22.9942 39.5271 22.9967 39.5811 23.0018L47.1071 23.7096C47.1331 23.712 47.1591 23.7132 47.1847 23.7132C47.6301 23.7132 48.0001 23.3516 48.0001 22.8967V16.6184V9.44308C48.0001 9.44308 32.599 4.62508 32.4187 4.55833ZM44.9979 20.498L39.8622 20.015C39.7137 20.001 39.5662 19.9942 39.4202 19.9942C36.8357 19.9942 34.7329 22.0981 34.7329 24.6843V40.4564H13.2671V24.6843C13.2671 22.0982 11.1643 19.9942 8.57963 19.9942C8.43384 19.9942 8.28647 20.001 8.13797 20.0149L3.44606 20.4561L3 20.496V16.6183V11.6465L13.6143 8.31902C15.1577 12.2396 19.2307 15.0471 24 15.0471C28.7693 15.0471 32.8423 12.2396 34.3857 8.31902L45 11.6465V16.6183V20.1735L44.9979 20.498Z" fill="#343A40"/>
</g>
<defs>
<clipPath id="clip0_332_336">
<rect width="48" height="48" fill="white"/>
</clipPath>
</defs>
</svg>
