<svg width="48" height="48" viewBox="0 0 48 48" fill="none" xmlns="http://www.w3.org/2000/svg">
<path d="M38.2168 0L35.996 8.60541H1.2207L7.69105 31.0587H30.2016L29.3901 34.2032H9.26745V37.5133H31.9542L40.7807 3.30994H46.7809V0H38.2168ZM26.9212 27.7487V21.4046H32.693L31.0559 27.7487H26.9212ZM35.1419 11.9154L33.5472 18.0947H26.9211V11.9154H35.1419ZM23.6112 21.4046V27.7487H17.0791V21.4046H23.6112ZM23.6112 11.9154V18.0947H17.0791V11.9154H23.6112ZM13.769 11.9154V18.0947H7.40014L5.61945 11.9154H13.769ZM13.769 21.4046V27.7487H10.182L8.35367 21.4046H13.769Z" fill="#343A40"/>
<path d="M12.4284 38.9102C9.97362 38.9102 7.97656 40.9071 7.97656 43.3618C7.97656 45.8164 9.97372 47.8136 12.4284 47.8136C14.883 47.8136 16.88 45.8164 16.88 43.3618C16.88 40.9071 14.883 38.9102 12.4284 38.9102ZM12.4284 44.5037C11.7987 44.5037 11.2865 43.9915 11.2865 43.3618C11.2865 42.7321 11.7987 42.2201 12.4284 42.2201C13.0579 42.2201 13.5701 42.7321 13.5701 43.3618C13.5701 43.9915 13.0578 44.5037 12.4284 44.5037Z" fill="#343A40"/>
<path d="M28.0905 39.0957C25.6357 39.0957 23.6387 41.0927 23.6387 43.5479C23.6387 46.0028 25.6357 47.9997 28.0905 47.9997C30.5452 47.9997 32.5421 46.0027 32.5421 43.5479C32.5421 41.0926 30.5452 39.0957 28.0905 39.0957ZM28.0905 44.6897C27.4608 44.6897 26.9488 44.1777 26.9488 43.5478C26.9488 42.9183 27.4608 42.4055 28.0905 42.4055C28.7202 42.4055 29.2322 42.9183 29.2322 43.5478C29.2322 44.1777 28.7202 44.6897 28.0905 44.6897Z" fill="#343A40"/>
</svg>
