<svg width="44" height="54" viewBox="0 0 44 54" fill="none" xmlns="http://www.w3.org/2000/svg">
<path d="M43.7918 10.6109C43.6386 9.70196 43.4251 9.24022 43.4251 9.24022C43.3595 8.99483 43.1817 8.81401 42.9669 8.77362C42.7508 8.73322 42.5346 8.83984 42.4074 9.04969L41.8356 9.99416L38.606 15.3476C37.9822 16.3776 36.7087 16.5648 35.7608 15.7657L30.322 11.1727C29.3753 10.3737 29.1127 8.88996 29.7379 7.85994L33.0454 2.37737L33.5885 1.48302C33.7144 1.27472 33.7307 0.998646 33.6309 0.772681C33.5296 0.545063 33.3299 0.404546 33.1124 0.407852C33.1124 0.407852 32.5995 0.30453 31.7787 0.427277C29.7146 0.738895 27.7037 1.75269 26.0212 3.49304C23.6479 5.94694 22.4004 9.3549 22.3306 12.8066C22.3087 13.8479 23.1062 18.3682 21.0228 20.8269C18.9395 23.2857 1.33886 44.0565 1.33886 44.0565C-0.446287 46.1649 -0.446287 49.581 1.33886 51.6877C3.12532 53.7946 6.01985 53.7946 7.80491 51.6877C7.80491 51.6877 25.8366 30.4067 27.4891 28.4565C29.1415 26.5063 33.7226 25.9284 34.6309 25.7831C36.6663 25.4585 38.6443 24.448 40.305 22.7302C43.3239 19.6079 44.5223 14.9455 43.7918 10.6109ZM3.09118 49.6213C2.23489 48.6107 2.23489 46.9753 3.09118 45.9646C3.94615 44.9556 5.33314 44.954 6.18811 45.9646C7.0444 46.9737 7.0444 48.6106 6.18811 49.6213C5.33314 50.6303 3.94606 50.6303 3.09118 49.6213Z" fill="#4B4B4B"/>
</svg>
