<svg width="48" height="48" viewBox="0 0 48 48" fill="none" xmlns="http://www.w3.org/2000/svg">
<g clip-path="url(#clip0_332_367)">
<path d="M47.1372 9.46698C47.0179 9.20824 46.6761 8.96017 46.4412 8.78617C46.4361 8.77858 46.4299 8.77108 46.4249 8.76414C46.4299 8.77042 46.4337 8.77736 46.4388 8.78355C46.1611 8.57814 45.8106 8.43939 45.3948 8.39542L29.3845 6.68749C27.941 6.53289 26.2789 7.54427 25.6822 8.93374L13.7475 36.7938C13.5 37.3692 13.4773 37.9239 13.6356 38.3861C13.6847 39.7171 14.9271 40.7448 16.1445 40.8748C16.3543 40.8974 16.5641 40.9195 16.7739 40.942C17.9473 41.0671 19.1194 41.1921 20.2916 41.3177C23.475 41.6569 26.6572 41.9961 29.8394 42.3366C31.4902 42.5125 33.1033 42.8805 34.5191 41.9088C36.0895 40.834 36.778 39.0577 37.7352 36.7127C41.3244 27.9175 43.8383 21.697 47.5783 12.9707C47.7893 12.4757 48.0117 11.9927 48.0004 11.4286C48.0004 11.428 48.0004 11.4286 48.0004 11.428C47.9738 10.6874 47.6334 10.063 47.1372 9.46698ZM25.3129 37.346C25.0214 37.9848 24.2149 38.4466 23.5176 38.3755C22.8216 38.3051 22.4926 37.7291 22.7839 37.0904C23.0742 36.4535 23.8757 35.9911 24.5717 36.0621C25.2676 36.1317 25.6019 36.7097 25.3129 37.346ZM34.2589 34.53L18.1331 32.8095L27.9034 10.014L44.0278 11.7352L34.2589 34.53Z" fill="#343A40"/>
<path d="M7.35733 6.7262L6.14383 5.44727C3.70783 7.75445 1.82346 10.713 0.807023 14.1535C-0.210634 17.5969 -0.233228 21.1007 0.555772 24.3621L2.26934 23.945C1.55074 20.9739 1.57202 17.7905 2.49921 14.6534C3.42509 11.5183 5.13874 8.82986 7.35733 6.7262Z" fill="#343A40"/>
<path d="M7.17889 16.0365C6.43142 18.5705 6.41389 21.1527 6.99551 23.5566L8.70908 23.1383C8.19908 21.024 8.21408 18.7621 8.87117 16.5359C9.52948 14.3078 10.7468 12.3989 12.3247 10.9045L11.1111 9.62305C9.31705 11.3228 7.92889 13.5 7.17889 16.0365Z" fill="#343A40"/>
<path d="M15.2453 18.4183C15.6347 17.0993 16.3583 15.9743 17.2967 15.0829L16.0831 13.8027C14.9336 14.8938 14.0354 16.2876 13.5542 17.9184C13.0731 19.5477 13.068 21.2073 13.4411 22.7463L15.1547 22.3299C14.8521 21.0736 14.8558 19.7363 15.2453 18.4183Z" fill="#343A40"/>
</g>
<defs>
<clipPath id="clip0_332_367">
<rect width="48" height="48" fill="white"/>
</clipPath>
</defs>
</svg>
