<svg width="48" height="40" viewBox="0 0 48 40" fill="none" xmlns="http://www.w3.org/2000/svg">
<path d="M45.6526 17.5757C48.2836 14.6094 46.8128 10.8403 46.6326 10.3775C46.4524 9.91466 46.1404 10.1095 45.9779 10.3541C45.8123 10.5987 42.2117 15.0869 42.2117 15.0869H23.2875C23.2875 15.0869 13.5638 1.16947 13.2284 0.680188C12.8929 0.190906 12.6351 0.136719 12.4036 0.136719C12.1708 0.136719 11.8089 0.214344 11.8089 0.885219C11.8089 1.32472 11.8089 8.28706 11.8089 8.28706C11.8089 8.28706 2.31671 13.7597 0.948519 14.5053C-0.415262 15.2538 -0.00510601 16.1826 0.331832 16.9032C0.627706 17.5434 4.45683 25.726 4.5608 25.9589C4.66336 26.1904 4.92118 26.1904 5.0003 26.0352C5.07652 25.8799 6.08283 24.4868 6.26302 24.1777C6.44321 23.8701 6.67608 23.9462 6.83143 24.0766C6.92958 24.1572 7.5023 24.541 7.73377 24.7197C7.96664 24.9013 8.22305 24.7197 8.30068 24.5892C8.3798 24.4618 9.5648 22.682 9.69371 22.4755C9.82261 22.2689 10.0028 22.3744 10.0819 22.4257C10.1581 22.4755 10.5976 22.915 10.9066 23.2241C11.2157 23.5082 11.3197 23.4043 11.5512 23.0952C11.6434 22.9751 12.4814 21.7035 12.6616 21.5219C12.8402 21.3418 12.9691 21.4443 13.0996 21.6245C13.2285 21.8062 14.4414 23.6899 14.8793 24.3843C15.3173 25.083 15.266 25.3906 15.266 25.6484C15.266 25.9062 13.9755 39.8633 13.9755 39.8633H22.6942L24.165 30.1104C24.165 30.1104 33.0902 30.1104 33.7099 30.1104C34.3281 30.1104 35.6699 30.3169 37.0117 31.6338C38.3535 32.9478 39.4609 39.8106 39.4609 39.8106H47.9995L45.6526 17.5757Z" fill="#4B4B4B"/>
</svg>
