<svg width="48" height="48" viewBox="0 0 48 48" fill="none" xmlns="http://www.w3.org/2000/svg">
<g clip-path="url(#clip0_332_381)">
<path d="M44.3014 31.9265C43.6319 29.6032 42.964 27.2785 42.296 24.9553C42.0777 24.1994 41.8595 23.4436 41.6426 22.6863L39.8291 24.4998C40.4166 26.8128 41.0039 29.1258 41.5914 31.4402C41.8814 32.5798 41.1211 33.5935 39.8716 33.2039C37.8252 32.3542 35.5693 31.7566 33.3531 31.6409C30.8335 31.512 28.2525 32.0276 25.9307 32.9959C25.6685 33.1042 23.9166 34.3655 23.8463 33.4705C23.8082 31.3787 23.7686 29.2869 23.7306 27.1951C23.65 22.8738 23.5709 18.554 23.4903 14.2326C23.4859 13.9851 24.0835 13.8605 24.2066 13.8137C25.1852 13.4431 26.209 13.1882 27.2403 13.0212C29.7525 12.6125 32.2252 12.822 34.6817 13.4446C35.464 13.6438 36.2843 13.887 36.8614 14.3909L38.0275 13.2263C37.648 12.9392 37.2247 12.6961 36.772 12.4954C34.6876 11.5623 32.0421 11.1931 29.7804 11.1404C27.3648 11.0833 24.8965 11.4612 22.6114 12.2464C22.1661 12.3987 21.438 11.9944 20.9825 11.8714C20.4463 11.7263 19.9044 11.6047 19.358 11.5022C18.1539 11.2795 16.9322 11.1579 15.7075 11.1389C13.3682 11.1022 10.9776 11.5505 8.7422 12.2229C8.25002 12.4075 8.60158 12.2771 8.71145 12.2361C7.31692 12.7635 5.78758 13.6249 5.34817 15.1541C5.2383 15.5364 5.12702 15.9187 5.01714 16.301C4.46045 18.2361 3.90386 20.1697 3.34717 22.1047C2.58545 24.7503 1.82523 27.3943 1.06352 30.0383C0.62111 31.5779 -0.256296 33.5555 0.0718286 35.174C0.473172 37.178 2.4332 38.1008 4.32723 37.7155C4.9937 37.5778 5.60458 37.2702 6.2403 37.0431C7.3023 36.6622 8.38923 36.3415 9.4952 36.1115C12.1583 35.5592 14.8624 35.8521 17.4801 36.5275C18.0645 36.6784 20.2545 37.0564 20.3175 37.7096C20.3776 38.319 21.0777 38.1534 21.5187 38.1534C21.9567 38.1534 22.3947 38.1534 22.8327 38.1534C23.2341 38.1534 23.9065 38.2926 24.2874 38.1256C24.6697 37.96 24.3753 37.5411 24.7356 37.3844C25.2263 37.172 25.7346 36.9962 26.2444 36.838C27.4368 36.4659 28.6614 36.1891 29.8977 36.0089C32.5418 35.6237 35.0408 35.9019 37.5794 36.7032C39.0662 37.172 40.5076 38.0362 42.1205 37.7477C44.3192 37.358 45.2186 35.111 44.6415 33.107C44.5373 32.7101 44.4142 32.319 44.3014 31.9265ZM21.2345 19.3698C21.1465 24.0148 21.0616 28.6583 20.9752 33.3034C20.9693 33.614 20.8843 33.8073 20.5387 33.7985C18.6578 32.6808 16.4254 32.0347 14.2662 31.7623C11.7291 31.4415 9.2462 31.7872 6.81461 32.5416C6.0602 32.7745 5.21645 33.2872 4.41667 33.2872C3.50111 33.2872 2.96936 32.4727 3.1833 31.6217C3.74289 29.423 4.29948 27.2227 4.85908 25.024C5.51533 22.4386 6.17008 19.8516 6.82783 17.2662C6.99189 16.6232 7.15445 15.9786 7.31852 15.3341C7.71845 13.7579 9.94792 13.4591 11.2795 13.1823C13.7653 12.6681 16.2849 12.6711 18.7619 13.2541C19.1897 13.3551 21.34 13.6862 21.3283 14.3C21.296 15.9904 21.2652 17.6809 21.2345 19.3698Z" fill="#343A40"/>
<path d="M28.5566 29.2324L35.0767 27.8496L47.9995 14.9297L42.8608 9.79102L29.941 22.711L28.5566 29.2324ZM45.5211 14.9297L34.441 26.0084L33.2969 24.8643L44.377 13.7857L45.5211 14.9297ZM42.8609 12.2696L44.005 13.4136L32.9248 24.4922L31.7808 23.3482L42.8609 12.2696ZM31.5215 23.8316L33.9575 26.2691L31.6885 26.7686L31.0205 26.1021L31.5215 23.8316Z" fill="#343A40"/>
</g>
<defs>
<clipPath id="clip0_332_381">
<rect width="48" height="48" fill="white"/>
</clipPath>
</defs>
</svg>
