<svg width="48" height="34" viewBox="0 0 48 34" fill="none" xmlns="http://www.w3.org/2000/svg">
<path d="M41.6221 0.125H6.37791C2.85647 0.125 0 2.98147 0 6.50291V27.4971C0 31.0185 2.85647 33.875 6.37791 33.875H41.6221C45.1435 33.875 48 31.0185 48 27.4971V6.50291C48 2.98147 45.1435 0.125 41.6221 0.125ZM45 27.4971C45 29.3604 43.4854 30.875 41.6221 30.875H6.37791C4.51462 30.875 3 29.3604 3 27.4971V14H45V27.4971ZM45 9.5H3V6.50291C3 4.63963 4.51462 3.125 6.37791 3.125H41.6221C43.4854 3.125 45 4.63963 45 6.50291V9.5Z" fill="#4B4B4B"/>
<path d="M15.75 20.124H9.75V26.124H15.75V20.124Z" fill="#4B4B4B"/>
<path d="M39.375 20.124H24.375V22.374H39.375V20.124Z" fill="#4B4B4B"/>
<path d="M36.375 24.624H24.375V26.874H36.375V24.624Z" fill="#4B4B4B"/>
</svg>
