<svg width="48" height="48" viewBox="0 0 48 48" fill="none" xmlns="http://www.w3.org/2000/svg">
<g clip-path="url(#clip0_332_344)">
<path d="M24.0008 10.9547C27.0252 10.9547 29.4781 8.50256 29.4781 5.47809C29.4782 2.45372 27.0253 0 24.0008 0C20.9756 0 18.5234 2.45372 18.5234 5.47809C18.5235 8.50256 20.9756 10.9547 24.0008 10.9547Z" fill="#4B4B4B"/>
<path d="M28.6386 11.7948C28.5194 11.6763 27.9794 11.6456 27.8333 11.7364C26.7164 12.424 25.4057 12.8263 24.0004 12.8263C22.5951 12.8263 21.2844 12.424 20.1675 11.7364C20.0214 11.6456 19.4815 11.6764 19.3622 11.7948C18.443 12.714 17.2307 14.7669 16.9862 16.2322C16.3847 19.8389 20.2383 21.1418 24.0004 21.1418C27.7624 21.1418 31.6152 19.8389 31.0145 16.2322C30.77 14.7669 29.5577 12.714 28.6386 11.7948Z" fill="#4B4B4B"/>
<path d="M7.21869 37.8121C10.2438 37.8121 12.696 35.36 12.696 32.3348C12.696 29.3096 10.2439 26.8574 7.21869 26.8574C4.19422 26.8574 1.74219 29.3095 1.74219 32.3348C1.74219 35.36 4.19431 37.8121 7.21869 37.8121Z" fill="#4B4B4B"/>
<path d="M11.8572 38.6529C11.7379 38.5338 11.198 38.5029 11.0519 38.5937C9.93493 39.2822 8.62431 39.6836 7.219 39.6836C5.81368 39.6836 4.50306 39.2822 3.38696 38.5937C3.23996 38.5029 2.70006 38.5338 2.58081 38.6529C1.66168 39.5714 0.449496 41.6251 0.204808 43.0897C-0.395848 46.697 3.457 48 7.219 48C10.9817 48 14.8347 46.697 14.2332 43.0896C13.9886 41.6251 12.7771 39.5713 11.8572 38.6529Z" fill="#4B4B4B"/>
<path d="M35.3027 32.3348C35.3027 35.36 37.7549 37.8121 40.7801 37.8121C43.8045 37.8121 46.2567 35.36 46.2567 32.3348C46.2567 29.3096 43.8045 26.8574 40.7801 26.8574C37.755 26.8574 35.3027 29.3096 35.3027 32.3348Z" fill="#4B4B4B"/>
<path d="M47.7958 43.0897C47.5513 41.6251 46.339 39.5714 45.4191 38.6529C45.3006 38.5338 44.7607 38.5029 44.6138 38.5937C43.4977 39.2822 42.187 39.6836 40.7817 39.6836C39.3756 39.6836 38.0657 39.2822 36.9488 38.5937C36.8019 38.5029 36.262 38.5338 36.1435 38.6529C35.2235 39.5714 34.012 41.6251 33.7675 43.0897C33.166 46.6971 37.0188 48.0001 40.7817 48.0001C44.5437 48.0001 48.3965 46.6971 47.7958 43.0897Z" fill="#4B4B4B"/>
<path d="M10.5912 21.5328L8.88669 21.149C9.25278 19.9645 9.84969 18.853 10.6527 17.8869C11.0696 17.3845 11.5426 16.9215 12.0696 16.5077C12.5818 16.1047 13.1395 15.7478 13.7448 15.4509L13.0495 14.0371C12.3411 14.3856 11.6896 14.8025 11.0957 15.2693C10.4812 15.7524 9.92806 16.2939 9.44047 16.88C8.47662 18.0399 7.77209 19.3782 7.34909 20.8028L5.39844 20.3644L7.346 24.6487L10.5912 21.5328Z" fill="#4B4B4B"/>
<path d="M26.2691 44.2445C25.5699 44.4053 24.8523 44.4883 24.1324 44.4883C23.5994 44.4883 23.0647 44.4429 22.5333 44.353C21.8902 44.2422 21.2525 44.0645 20.6311 43.8153C20.0266 43.5746 19.4389 43.2684 18.8774 42.8931L18.002 44.2038C18.6574 44.6415 19.3435 44.9975 20.0457 45.2776C20.771 45.5683 21.5164 45.7768 22.2679 45.9052C22.887 46.0114 23.5108 46.0637 24.1323 46.0637C25.0122 46.0637 25.886 45.9537 26.7376 45.7484L27.3036 47.5636L30.0404 43.7354L25.7199 42.4824L26.2691 44.2445Z" fill="#4B4B4B"/>
<path d="M37.1406 17.6442C38.0243 18.5734 38.7228 19.6763 39.1728 20.8947C39.3996 21.5062 39.5643 22.1485 39.6589 22.8107C39.7235 23.2576 39.7565 23.7114 39.7565 24.173C39.7565 24.3768 39.7504 24.5829 39.7365 24.7914L41.3087 24.893C41.3241 24.6514 41.3317 24.4115 41.3317 24.173C41.3317 23.6345 41.2925 23.1053 41.2188 22.5869C41.1072 21.8131 40.9148 21.0623 40.6503 20.3486C40.1135 18.8932 39.2727 17.5841 38.2089 16.4857L39.5488 15.0335L34.8652 14.5781L35.9398 18.9463L37.1406 17.6442Z" fill="#4B4B4B"/>
</g>
<defs>
<clipPath id="clip0_332_344">
<rect width="48" height="48" fill="white"/>
</clipPath>
</defs>
</svg>
