<svg width="44" height="48" viewBox="0 0 44 48" fill="none" xmlns="http://www.w3.org/2000/svg">
<path d="M22.0005 0L0.890625 8.04197V11.8125H2.39794V12.9434H41.6031V11.8125H43.1104V8.04197L22.0005 0Z" fill="#4B4B4B"/>
<path d="M41.6031 39.7061H2.39794V42.7237H0.890625V48H43.1104V42.7237H41.6031V39.7061Z" fill="#4B4B4B"/>
<path d="M31.8027 35.183V37.4448H39.3423V35.183H38.5879V16.7129H39.3423V14.4512H31.8027V16.7129H32.5571V35.183H31.8027Z" fill="#4B4B4B"/>
<path d="M18.2305 35.183V37.4448H25.77V35.183H25.0171V16.7129H25.77V14.4512H18.2305V16.7129H18.9849V35.183H18.2305Z" fill="#4B4B4B"/>
<path d="M4.66016 35.183V37.4448H12.1997V35.183H11.4453V16.7129H12.1997V14.4512H4.66016V16.7129H5.41456V35.183H4.66016Z" fill="#4B4B4B"/>
</svg>
