<svg width="60" height="50" viewBox="0 0 60 50" fill="none" xmlns="http://www.w3.org/2000/svg">
<path d="M56.1623 30.2643C55.6331 29.2373 54.9429 28.4088 54.1958 27.6794C53.8241 27.3162 53.4396 26.9806 53.0496 26.6479C53.1502 26.2633 53.0496 25.8514 52.7145 25.54L52.7219 25.537C52.7128 25.5248 52.6688 25.4226 52.6413 25.241C52.6139 25.0609 52.5974 24.8076 52.5974 24.5056C52.5955 23.7457 52.6908 22.6867 52.6908 21.469C52.6908 19.931 52.5388 18.1213 51.7936 16.2292C51.052 14.3371 49.7043 12.3748 47.4209 10.5865C44.7165 8.46553 41.5561 7.2998 38.4982 6.67412C38.3993 6.6543 38.3022 6.63906 38.2071 6.61914C38.7582 5.9416 39.0805 5.12373 39.0805 4.2418C39.0804 1.90127 36.8026 0 33.9882 0C32.3641 0 30.9322 0.646973 30.0002 1.63574C29.0701 0.646973 27.6363 0 26.0103 0C23.1978 0.0015625 20.9199 1.89824 20.9182 4.24199C20.9182 5.12393 21.2423 5.9418 21.7934 6.61934C21.6964 6.63916 21.6011 6.65439 21.5024 6.67432C18.4445 7.2999 15.2804 8.46572 12.5796 10.5867C10.2944 12.3751 8.94864 14.3389 8.2052 16.2294C7.46176 18.1215 7.30977 19.9312 7.30977 21.4692C7.30977 22.6869 7.40317 23.7428 7.40317 24.5027C7.40317 24.8995 7.37387 25.2107 7.32805 25.3847C7.30977 25.4717 7.28598 25.522 7.2786 25.5342L7.27672 25.5372L7.28223 25.5402C6.94895 25.8516 6.84829 26.2605 6.94895 26.648C6.82075 26.7549 6.69442 26.8647 6.56809 26.9746C5.53532 27.8825 4.54298 28.8927 3.83798 30.2645C3.13122 31.6378 2.72469 33.3391 2.72657 35.6203C2.72469 37.961 3.44071 40.0759 4.78286 41.8917C6.79708 44.6169 10.168 46.6433 14.471 47.9846C18.7814 49.327 24.0511 50 30.0002 50C37.9324 49.997 44.6578 48.8083 49.5047 46.4142C51.9253 45.2163 53.8773 43.7072 55.2175 41.8914C56.5597 40.0756 57.2757 37.9607 57.2738 35.62C57.2756 33.339 56.8691 31.6376 56.1623 30.2643ZM33.9882 2.54521C35.1125 2.54824 36.0225 3.3082 36.0243 4.24199C36.0225 5.18193 35.1143 5.93877 33.9882 5.9418C32.8658 5.93877 31.954 5.17881 31.9521 4.24199C31.954 3.30811 32.8658 2.54824 33.9882 2.54521ZM26.0103 2.54521C27.1346 2.54824 28.0446 3.3082 28.0465 4.24199C28.0446 5.18193 27.1364 5.93877 26.0103 5.9418C24.8879 5.93877 23.9761 5.17881 23.9742 4.24199C23.9761 3.30811 24.8879 2.54824 26.0103 2.54521ZM49.5779 23.4223C48.8088 22.525 48.0746 21.4569 47.4246 20.0501C45.9927 16.9373 43.8998 14.74 40.9903 13.4003C38.0844 12.0575 34.4772 11.5662 30.0003 11.5662C25.5234 11.5662 21.918 12.0575 19.0104 13.4003C16.1008 14.74 14.0079 16.9373 12.5761 20.0501C11.9241 21.4539 11.1917 22.5281 10.4227 23.4284C10.3934 22.8089 10.3623 22.1649 10.3641 21.4691C10.3641 20.0745 10.507 18.5517 11.1093 17.0228C11.7154 15.4923 12.7627 13.945 14.6744 12.4421C16.912 10.6843 19.5413 9.7001 22.2349 9.14619C24.9247 8.59385 27.6584 8.48701 30.0004 8.48701C32.3442 8.48701 35.0762 8.59385 37.766 9.14619C40.4594 9.7001 43.087 10.6843 45.3265 12.4421C47.2381 13.9451 48.2836 15.4923 48.8915 17.0228C49.494 18.5517 49.6367 20.0729 49.6367 21.4691C49.6382 22.1619 49.6072 22.8058 49.5779 23.4223Z" fill="#4B4B4B"/>
</svg>
