<svg width="51" height="49" viewBox="0 0 51 49" fill="none" xmlns="http://www.w3.org/2000/svg">
<path d="M13.1425 5.64453L13.3643 6.51888C13.4587 6.48379 13.5547 6.4487 13.649 6.41651C13.7434 6.38292 13.836 6.35214 13.9285 6.32444C14.0194 6.29515 14.1084 6.26745 14.1993 6.24256C14.2884 6.21767 14.3757 6.19577 14.463 6.17388C14.6098 6.14028 14.7635 6.1183 14.9067 6.1066C15.0517 6.0949 15.1896 6.0905 15.3084 6.0934C15.4289 6.0949 15.5302 6.1007 15.6037 6.1066C15.6788 6.11249 15.726 6.1183 15.7365 6.1183L15.7906 6.12269L15.8412 6.13879L15.8814 6.16658L15.9093 6.20457L15.9233 6.25136V6.30404L15.9075 6.35812L15.8814 6.41221L15.2752 7.34945L15.2386 7.39623L15.1966 7.43722L15.1513 7.47231L15.0972 7.5001L15.0692 7.51329L15.036 7.52349L15.0081 7.52789L14.9749 7.53229C14.9678 7.53229 14.9347 7.52789 14.8805 7.52639C14.8246 7.52349 14.7477 7.52349 14.6604 7.52349C14.5731 7.52349 14.477 7.52939 14.3722 7.54108C14.2691 7.55128 14.1626 7.56738 14.0613 7.59227C13.96 7.61566 13.8604 7.64495 13.7574 7.67564C13.6561 7.70783 13.553 7.74143 13.4482 7.77652C13.3451 7.81451 13.242 7.85259 13.1355 7.89788C13.0324 7.93887 12.9241 7.98565 12.8194 8.03384C12.6796 8.09822 12.5504 8.16101 12.4316 8.22829C12.3127 8.29557 12.208 8.36285 12.1084 8.43004C12.0124 8.49732 11.9233 8.566 11.8463 8.63618C11.7678 8.70636 11.7031 8.77654 11.6455 8.84672C11.5896 8.9198 11.5424 8.99148 11.5023 9.06166C11.4673 9.13334 11.4359 9.20352 11.4166 9.2722C11.3974 9.34238 11.3852 9.41106 11.3816 9.47834C11.3816 9.54562 11.3887 9.6129 11.4043 9.67868C11.4218 9.73717 11.4375 9.79275 11.4655 9.83954C11.49 9.88632 11.5196 9.92731 11.5528 9.9624C11.5895 9.99599 11.6279 10.0268 11.6733 10.0502C11.7187 10.0707 11.7676 10.0868 11.8235 10.097C11.8794 10.1072 11.944 10.1102 12.0139 10.1072C12.0838 10.1042 12.1607 10.0955 12.248 10.0809C12.3318 10.0648 12.4244 10.0385 12.5222 10.0107C12.6253 9.9814 12.7318 9.9449 12.8471 9.89952L14.1257 9.40536C14.3651 9.31328 14.5921 9.23571 14.807 9.17432C15.02 9.11144 15.2192 9.06316 15.4096 9.02956C15.5983 8.99597 15.7747 8.97688 15.9371 8.97258C16.1048 8.96968 16.2567 8.97987 16.3983 9.00477C16.538 9.02966 16.6655 9.07055 16.779 9.12763C16.8961 9.18461 16.9973 9.25919 17.0864 9.34837C17.1755 9.43754 17.2506 9.54141 17.317 9.66418C17.3782 9.78555 17.4306 9.92301 17.469 10.0765C17.4917 10.1685 17.5091 10.2607 17.5179 10.3514C17.525 10.4435 17.5284 10.5341 17.5267 10.6263C17.5214 10.717 17.5127 10.8077 17.4935 10.8997C17.476 10.9889 17.455 11.0811 17.4254 11.1688C17.3956 11.2623 17.359 11.353 17.3188 11.4422C17.2787 11.5328 17.2315 11.6205 17.1809 11.7083C17.1303 11.7975 17.0744 11.8823 17.0132 11.97C16.9521 12.0563 16.884 12.1426 16.8141 12.2274C16.7425 12.3121 16.6657 12.397 16.5871 12.4803C16.505 12.5637 16.4194 12.6455 16.3285 12.7259C16.2376 12.8078 16.1416 12.8868 16.042 12.9657C15.9407 13.0447 15.8376 13.1222 15.7259 13.1982C15.6769 13.2304 15.628 13.2626 15.5791 13.2962C15.5301 13.3268 15.4795 13.359 15.4306 13.3897C15.38 13.4219 15.3293 13.4526 15.2751 13.4848C15.2227 13.5155 15.1721 13.5448 15.1196 13.5755L15.3782 14.618L13.7712 15.3564L13.5179 14.3359C13.4009 14.3811 13.2856 14.4221 13.1738 14.4645C13.0586 14.5055 12.945 14.542 12.8314 14.5786C12.7214 14.6137 12.6078 14.6473 12.4978 14.6766C12.3861 14.7072 12.2777 14.735 12.1694 14.7613C12.0035 14.8023 11.8235 14.8213 11.6437 14.8286C11.4655 14.8359 11.2891 14.8315 11.1284 14.8213C10.9729 14.8111 10.835 14.7964 10.7319 14.7833C10.6306 14.7701 10.566 14.7584 10.5537 14.757L10.4961 14.7497L10.4507 14.7321L10.4122 14.7043L10.3877 14.6649L10.3772 14.6181L10.379 14.5684L10.393 14.5143L10.4191 14.4602L11.0706 13.4675L11.1056 13.4222L11.1476 13.3827L11.1929 13.3491L11.2419 13.3213L11.2786 13.3067L11.3136 13.2965L11.3537 13.2906L11.3887 13.2891C11.3974 13.2906 11.4464 13.2993 11.5215 13.3081C11.5948 13.3183 11.6962 13.3315 11.8131 13.3388C11.9284 13.349 12.0594 13.3534 12.1886 13.349C12.3197 13.3431 12.4507 13.33 12.573 13.3037C12.6918 13.2744 12.8087 13.2438 12.9276 13.2102C13.0464 13.1751 13.1616 13.1385 13.2787 13.099C13.3939 13.058 13.5093 13.0171 13.6262 12.9688C13.7415 12.9235 13.8516 12.8738 13.9651 12.8241C14.1083 12.7583 14.2445 12.691 14.3703 12.6208C14.4995 12.5507 14.6218 12.4805 14.7318 12.4059C14.8471 12.3328 14.9536 12.2553 15.0514 12.1778C15.1492 12.1002 15.2401 12.0213 15.324 11.9379C15.4078 11.8561 15.4795 11.7727 15.537 11.6908C15.5947 11.6104 15.6401 11.527 15.6715 11.4452C15.7029 11.3618 15.7205 11.2785 15.7256 11.1966C15.7327 11.1148 15.7256 11.03 15.7029 10.9481C15.6908 10.8896 15.6697 10.8355 15.6436 10.7888C15.6191 10.7391 15.5911 10.6981 15.5545 10.6616C15.5195 10.625 15.4811 10.5929 15.434 10.5709C15.3886 10.546 15.3396 10.527 15.2855 10.5124C15.2331 10.4992 15.1703 10.4934 15.1021 10.4934C15.0322 10.4934 14.9571 10.5007 14.8715 10.5139C14.7894 10.53 14.6985 10.5505 14.6007 10.5783C14.5029 10.6046 14.398 10.6397 14.2862 10.6807L12.8225 11.2465C12.6058 11.3299 12.398 11.3986 12.2024 11.4542C12.005 11.5111 11.8199 11.5536 11.6417 11.5828C11.4687 11.6121 11.3028 11.6296 11.1473 11.634C10.9918 11.6369 10.8486 11.6281 10.7142 11.6033C10.5797 11.5828 10.4574 11.5433 10.3474 11.4863C10.2374 11.4337 10.1412 11.3621 10.0539 11.2729C9.9683 11.1851 9.89497 11.0799 9.83382 10.96C9.77088 10.8386 9.72203 10.7012 9.6819 10.5477C9.66267 10.4629 9.64523 10.3796 9.63998 10.2933C9.62947 10.2085 9.62779 10.1251 9.62947 10.0374C9.63472 9.95267 9.64523 9.8678 9.6592 9.78012C9.67664 9.69384 9.69766 9.60907 9.72561 9.52129C9.75355 9.43352 9.78497 9.34874 9.82342 9.26247C9.86009 9.17619 9.90201 9.08992 9.94918 9.00804C9.99636 8.92326 10.0452 8.84139 10.1029 8.75951C10.157 8.67613 10.2199 8.59426 10.2845 8.51388C10.351 8.432 10.419 8.35302 10.4942 8.27555C10.5675 8.19657 10.6444 8.11909 10.7248 8.04451C10.8068 7.96844 10.8907 7.89245 10.9798 7.82078C11.0706 7.7477 11.1614 7.67752 11.2574 7.60733C11.2959 7.57805 11.3395 7.54885 11.3814 7.52106C11.4233 7.49327 11.4653 7.46407 11.5054 7.43769C11.5508 7.40989 11.5927 7.3836 11.6364 7.35731C11.6801 7.32951 11.7255 7.30322 11.7674 7.27693L11.5456 6.38358L13.1425 5.64453Z" fill="#4B4B4B"/>
<path d="M27.3201 12.384C27.5803 11.8006 27.7847 11.2245 27.9349 10.6572L23.1542 7.01367C23.0721 7.59851 22.9114 8.21263 22.6738 8.84126L27.3201 12.384Z" fill="#4B4B4B"/>
<path d="M25.7642 15.0322C26.1206 14.5453 26.4384 14.057 26.7197 13.5657L22.1206 10.0625C21.8603 10.5597 21.5546 11.0611 21.207 11.5582L25.7642 15.0322Z" fill="#4B4B4B"/>
<path d="M12.493 18.0625C11.7506 18.3125 11.0205 18.4938 10.3184 18.5991L15.1235 22.2616C15.7924 22.095 16.472 21.8785 17.1531 21.6124L12.493 18.0625Z" fill="#4B4B4B"/>
<path d="M18.5184 21.0142C19.0826 20.7408 19.6415 20.4352 20.1934 20.0975L15.6293 16.6191C15.0617 16.9539 14.4888 17.2493 13.9141 17.5066L18.5184 21.0142Z" fill="#4B4B4B"/>
<path d="M7.32684 5.50331C2.19329 10.2244 0.914763 16.2453 4.46919 18.9545L7.61849 21.3553C9.07879 22.468 11.1276 22.8466 13.3914 22.5819L8.27883 18.6869C7.27966 18.6035 6.40458 18.3155 5.72513 17.7995C2.9881 15.7101 4.35226 10.5621 8.70854 6.55601C13.0648 2.55133 19.0612 0.931385 21.8018 3.0207C22.5598 3.59824 23.0053 4.41411 23.1572 5.37464L28.1895 9.20967C28.3642 7.19493 27.7318 5.42433 26.207 4.26345L23.0595 1.86413C19.5048 -0.84502 12.4622 0.785129 7.32684 5.50331Z" fill="#4B4B4B"/>
<path d="M21.3496 19.3352C21.8334 18.9916 22.3085 18.6202 22.7714 18.2255L18.2387 14.7734C17.7741 15.1667 17.2954 15.5322 16.8047 15.8729L21.3496 19.3352Z" fill="#4B4B4B"/>
<path d="M23.7501 17.3338C24.1798 16.9156 24.5816 16.4888 24.9536 16.0545L20.4122 12.5938C20.0489 13.0309 19.6524 13.4622 19.2227 13.8804L23.7501 17.3338Z" fill="#4B4B4B"/>
<path d="M17.0617 37.8331L16.1919 38.0027C16.2304 38.0685 16.267 38.1358 16.3002 38.2016C16.3352 38.266 16.3683 38.3302 16.398 38.396C16.4295 38.4589 16.4574 38.5218 16.4853 38.5847C16.5098 38.6475 16.5343 38.7075 16.5605 38.7688C16.5955 38.8712 16.6198 38.9765 16.6356 39.0773C16.6496 39.1797 16.6566 39.2747 16.6566 39.3596C16.6584 39.4429 16.6531 39.516 16.6479 39.5672C16.6444 39.6199 16.6408 39.652 16.6392 39.6593L16.6357 39.6988L16.6217 39.7338L16.5938 39.7631L16.5553 39.785L16.5082 39.7938L16.4557 39.7953L16.4033 39.7851L16.3492 39.7675L15.3972 39.361L15.3482 39.3362L15.3081 39.3084L15.2714 39.2748L15.2435 39.2397L15.2295 39.2178L15.2208 39.1959L15.2138 39.1754L15.2103 39.1535C15.2103 39.1535 15.2121 39.1257 15.2138 39.0862C15.2138 39.0482 15.2155 38.9955 15.212 38.9342C15.2102 38.8713 15.2015 38.804 15.191 38.731C15.177 38.6593 15.156 38.5848 15.1298 38.5161C15.1036 38.4459 15.0757 38.3728 15.0407 38.3011C15.0075 38.231 14.9743 38.1593 14.9342 38.0877C14.8957 38.016 14.8521 37.9429 14.8084 37.8713C14.7647 37.7982 14.7159 37.725 14.6652 37.6505C14.5988 37.5554 14.5307 37.4649 14.4625 37.383C14.3927 37.3026 14.3228 37.228 14.2547 37.1608C14.1849 37.0921 14.1132 37.0321 14.0417 36.9809C13.9718 36.9282 13.8985 36.8829 13.8268 36.8434C13.7535 36.8055 13.6818 36.7733 13.6085 36.7499C13.5368 36.7236 13.467 36.7046 13.3971 36.6914C13.3272 36.6797 13.2573 36.6724 13.1893 36.6724C13.1212 36.6724 13.0565 36.6797 12.9884 36.6914C12.929 36.7031 12.8766 36.7177 12.8294 36.7353C12.7822 36.7543 12.7403 36.7763 12.7089 36.8026C12.6757 36.8259 12.646 36.8537 12.6233 36.8859C12.6041 36.9195 12.5883 36.9532 12.5796 36.9941C12.5691 37.0336 12.5656 37.0789 12.5709 37.1272C12.5761 37.1768 12.5866 37.2295 12.6058 37.2894C12.6216 37.3494 12.6478 37.4152 12.6792 37.4839C12.7124 37.5525 12.7508 37.6271 12.7962 37.7076L13.3167 38.5951C13.4145 38.7602 13.4949 38.9167 13.563 39.0672C13.6294 39.2149 13.6818 39.3552 13.7185 39.4868C13.7551 39.6199 13.7778 39.7441 13.7831 39.8582C13.7936 39.9752 13.7831 40.0819 13.7604 40.1813C13.7412 40.2793 13.7027 40.37 13.6468 40.4518C13.5891 40.5322 13.5193 40.6054 13.4337 40.6712C13.3447 40.7341 13.2399 40.7896 13.1193 40.8364C12.9988 40.8847 12.8643 40.9227 12.7106 40.9519C12.618 40.9709 12.5255 40.9841 12.4346 40.9914C12.3455 41.0002 12.2529 41.0046 12.162 41.0046C12.0695 41.0017 11.9769 40.9973 11.886 40.9885C11.7969 40.9768 11.7044 40.9607 11.6153 40.9446C11.5209 40.9227 11.4302 40.9007 11.3393 40.8729C11.2484 40.848 11.1594 40.8159 11.0703 40.7822C10.9812 40.7486 10.8939 40.7106 10.8048 40.6697C10.7175 40.6287 10.6284 40.5834 10.5446 40.5366C10.4555 40.4883 10.3716 40.4342 10.286 40.3802C10.2004 40.3246 10.1183 40.2661 10.0345 40.2047C9.95243 40.1433 9.87027 40.076 9.78989 40.0074C9.70784 39.9401 9.62746 39.867 9.55234 39.7924C9.51568 39.7573 9.48426 39.7251 9.45106 39.6901C9.41786 39.6565 9.38645 39.6214 9.35146 39.5877C9.32005 39.5511 9.28852 39.5175 9.25543 39.4809C9.22402 39.4443 9.1925 39.4092 9.15941 39.3727L8.12011 39.5731L7.35156 38.4619L8.36984 38.2646C8.32088 38.1842 8.27728 38.1037 8.23357 38.0247C8.18986 37.9457 8.15152 37.8668 8.11307 37.7879C8.07461 37.709 8.03973 37.6329 8.00821 37.5554C7.97322 37.478 7.94359 37.4019 7.91732 37.3273C7.87362 37.2103 7.84924 37.0861 7.84041 36.9603C7.82644 36.8332 7.82823 36.7103 7.83516 36.5977C7.84388 36.4866 7.85439 36.3901 7.86657 36.3185C7.87708 36.2468 7.88759 36.2015 7.88927 36.1913L7.89452 36.1533L7.91196 36.1211L7.94169 36.0919L7.97668 36.0743L8.02207 36.067H8.0745L8.13039 36.0758L8.18282 36.0963L9.19071 36.5305L9.23442 36.5554L9.27634 36.5817L9.31133 36.6139L9.33927 36.6475L9.35325 36.6724L9.36722 36.6987L9.37247 36.725L9.37594 36.7513C9.37247 36.7557 9.36722 36.7893 9.3585 36.8434C9.34799 36.896 9.33748 36.9691 9.33402 37.0481C9.3253 37.13 9.32351 37.222 9.33055 37.3142C9.3376 37.4034 9.35325 37.497 9.38466 37.5803C9.4144 37.6651 9.4476 37.747 9.48594 37.8289C9.52261 37.9107 9.55927 37.9926 9.60298 38.073C9.6449 38.1534 9.69029 38.2324 9.73925 38.3113C9.78643 38.3917 9.83886 38.4707 9.89117 38.5482C9.95925 38.6476 10.0291 38.7396 10.1026 38.8289C10.1742 38.9181 10.2493 39.0014 10.3244 39.0804C10.4013 39.1565 10.4781 39.231 10.5584 39.2983C10.6388 39.3655 10.7209 39.4269 10.8047 39.4854C10.8885 39.5424 10.9742 39.5907 11.0544 39.6302C11.1401 39.6682 11.2221 39.6989 11.3042 39.7179C11.388 39.7398 11.4719 39.7501 11.5539 39.753C11.636 39.7545 11.7198 39.7486 11.8036 39.7296C11.8613 39.7208 11.9154 39.7047 11.9626 39.6872C12.0116 39.6683 12.0499 39.6478 12.0866 39.6215C12.1216 39.5966 12.153 39.5674 12.1775 39.5352C12.2002 39.503 12.2176 39.4694 12.2316 39.4299C12.2421 39.3919 12.2473 39.3495 12.2438 39.2998C12.2438 39.2515 12.235 39.2003 12.2193 39.1404C12.2053 39.0819 12.1826 39.0175 12.1529 38.9504C12.1231 38.8832 12.0865 38.81 12.0446 38.7325L11.4472 37.7164C11.3615 37.5658 11.2882 37.4211 11.2288 37.2851C11.1695 37.1477 11.1223 37.019 11.0891 36.8947C11.0541 36.7734 11.0332 36.6564 11.0279 36.5482C11.0209 36.44 11.0279 36.3377 11.049 36.2456C11.0682 36.1491 11.1031 36.0629 11.1573 35.9839C11.2097 35.9064 11.2813 35.8376 11.3669 35.7748C11.4542 35.7134 11.5556 35.6594 11.6761 35.614C11.7966 35.5672 11.9329 35.5306 12.0884 35.5014C12.1704 35.4838 12.2561 35.4721 12.3417 35.4648C12.4255 35.4575 12.5112 35.4531 12.5967 35.4531C12.6823 35.4546 12.7661 35.459 12.8535 35.4707C12.9408 35.478 13.0264 35.4926 13.1155 35.5102C13.2028 35.5278 13.2919 35.5497 13.3757 35.5746C13.463 35.598 13.5505 35.6258 13.6343 35.6565C13.7199 35.6887 13.802 35.7222 13.8858 35.7602C13.9697 35.7982 14.0535 35.8392 14.1339 35.8831C14.2177 35.9284 14.2981 35.9738 14.3801 36.0264C14.4571 36.0746 14.5356 36.1272 14.6124 36.1843C14.691 36.237 14.7679 36.2969 14.8431 36.3569C14.9164 36.4182 14.9898 36.4811 15.0614 36.5469C15.0928 36.5747 15.1207 36.6054 15.1505 36.6332C15.1784 36.6625 15.2064 36.6902 15.2361 36.721C15.2641 36.7502 15.292 36.7794 15.32 36.8101C15.3461 36.8379 15.3758 36.8686 15.402 36.9008L16.2928 36.7269L17.0617 37.8331Z" fill="#4B4B4B"/>
<path d="M10.5938 47.9073C11.1824 48.0783 11.7641 48.2129 12.3317 48.305L15.8863 44.8807C15.2994 44.834 14.6827 44.7331 14.0505 44.5781L10.5938 47.9073Z" fill="#4B4B4B"/>
<path d="M7.91211 46.8669C8.40465 47.1081 8.89898 47.3231 9.39677 47.5102L12.8168 44.2146C12.312 44.0421 11.8055 43.8375 11.3006 43.6035L7.91211 46.8669Z" fill="#4B4B4B"/>
<path d="M4.61304 37.6168C4.34933 37.1021 4.1537 36.5933 4.03487 36.1035L0.462891 39.5453C0.642758 40.0102 0.871589 40.4839 1.14938 40.9562L4.61304 37.6168Z" fill="#4B4B4B"/>
<path d="M1.77734 41.9024C2.06386 42.2928 2.38 42.6788 2.73101 43.0604L6.12133 39.7911C5.77892 39.3993 5.46983 39.0031 5.20087 38.6055L1.77734 41.9024Z" fill="#4B4B4B"/>
<path d="M17.0887 33.7469C12.2625 30.2378 6.21019 29.4586 3.56573 32.0069L1.22868 34.2615C0.140529 35.3069 -0.200091 36.7514 0.109004 38.3349L3.90981 34.6723C3.97275 33.969 4.24518 33.3491 4.74822 32.8651C6.78657 30.9016 11.9673 31.7583 16.0633 34.7366C20.1576 37.7134 21.8974 41.8891 19.8589 43.8526C19.2929 44.3966 18.486 44.7241 17.5271 44.8484L13.7874 48.4539C15.8083 48.5373 17.5673 48.0592 18.7009 46.967L21.0415 44.711C23.6825 42.1655 21.9166 37.2559 17.0887 33.7469Z" fill="#4B4B4B"/>
<path d="M3.51562 43.8542C3.87022 44.1876 4.25097 44.5136 4.65453 44.8309L8.02215 41.585C7.62039 41.2663 7.2431 40.9358 6.89555 40.5996L3.51562 43.8542Z" fill="#4B4B4B"/>
<path d="M5.56836 45.4988C5.99629 45.7941 6.43125 46.0661 6.87315 46.316L10.2478 43.0658C9.80246 42.8187 9.36402 42.5497 8.9361 42.2559L5.56836 45.4988Z" fill="#4B4B4B"/>
<path d="M37.4414 39.2974C38.1802 39.4554 38.9086 39.5693 39.6178 39.6351L43.5496 35.1451C42.8265 35.1378 42.0579 35.0661 41.2649 34.9316L37.4414 39.2974Z" fill="#4B4B4B"/>
<path d="M34.0352 38.2518C34.6674 38.5062 35.298 38.7256 35.9303 38.9111L39.7137 34.5921C39.0761 34.424 38.4316 34.2178 37.7835 33.9707L34.0352 38.2518Z" fill="#4B4B4B"/>
<path d="M28.8846 27.2169C28.4986 26.6071 28.1981 26.0033 27.9937 25.4141L24.041 29.9275C24.3187 30.4816 24.6559 31.0387 25.0524 31.5928L28.8846 27.2169Z" fill="#4B4B4B"/>
<path d="M25.9336 32.6984C26.3319 33.1517 26.7633 33.5975 27.2384 34.0333L30.992 29.7494C30.5222 29.299 30.0977 28.84 29.7204 28.375L25.9336 32.6984Z" fill="#4B4B4B"/>
<path d="M43.6729 21.4274C37.3463 17.5441 29.8478 17.1054 26.9239 20.4434L24.3335 23.4012C23.1336 24.7726 22.8924 26.5681 23.4619 28.476L27.6645 23.6775C27.6592 22.8119 27.9178 22.0311 28.4731 21.3922C30.7299 18.8204 37.1665 19.4287 42.5376 22.7241C47.9034 26.0197 50.5356 30.9776 48.2807 33.5509C47.6571 34.2644 46.7104 34.7323 45.5524 34.9677L41.4128 39.6932C43.8931 39.6245 45.9872 38.8905 47.2414 37.4577L49.8318 34.5013C52.7556 31.1635 49.9993 25.3092 43.6729 21.4274Z" fill="#4B4B4B"/>
<path d="M28.2949 34.9383C28.7682 35.3155 29.2731 35.6825 29.8059 36.0363L33.5333 31.7816C33.0005 31.4248 32.4993 31.0535 32.0329 30.6719L28.2949 34.9383Z" fill="#4B4B4B"/>
<path d="M31.0039 36.7791C31.5628 37.1009 32.127 37.3976 32.6982 37.6681L36.4326 33.4046C35.8579 33.14 35.2867 32.849 34.7278 32.5273L31.0039 36.7791Z" fill="#4B4B4B"/>
<path d="M37.5404 23.4341L37.5648 23.4457L37.5928 23.4574L37.6173 23.4706L37.6418 23.4852L37.7011 23.5276L37.7501 23.5759L37.7867 23.6271L37.8112 23.6768L38.1397 24.6037L38.1502 24.6724L38.124 24.7236L38.0663 24.7543L37.9825 24.7602C37.972 24.7587 37.9108 24.75 37.8201 24.7368C37.7292 24.7251 37.607 24.709 37.4742 24.6988C37.3414 24.6871 37.1965 24.6783 37.0637 24.6769C36.9274 24.6784 36.8017 24.6871 36.7038 24.7091L36.4122 24.7866L36.1502 24.8816L35.9126 24.9928L35.6978 25.1215C35.6139 25.18 35.5406 25.2399 35.476 25.3013C35.4096 25.3627 35.3555 25.4285 35.3101 25.4958C35.2647 25.5615 35.2262 25.6303 35.2017 25.7034C35.1756 25.7736 35.1616 25.8482 35.1546 25.9227C35.1493 25.9988 35.158 26.0748 35.1825 26.1509C35.2035 26.2269 35.2419 26.3029 35.2943 26.3819C35.3449 26.458 35.4096 26.5369 35.4881 26.6143C35.5685 26.6918 35.6611 26.7708 35.7676 26.8498L35.9108 26.9521L36.054 27.0399L36.1972 27.1174L36.337 27.1832L36.4208 27.2154L36.5029 27.2432L36.5849 27.2666L36.667 27.2841L36.8853 27.3075L37.1089 27.2929L37.3359 27.2418L37.5665 27.154L38.5552 26.6642C38.702 26.5925 38.8521 26.5356 39.0058 26.4873C39.1577 26.4405 39.3132 26.4069 39.4704 26.3849C39.6276 26.3615 39.79 26.3498 39.9525 26.3527C40.115 26.3542 40.2792 26.3688 40.4469 26.3937L40.6547 26.4332L40.8661 26.4888L41.0827 26.5589C41.156 26.5852 41.2295 26.6145 41.3045 26.6452C41.4094 26.6905 41.5194 26.7403 41.6277 26.7958C41.7377 26.8514 41.8478 26.9099 41.9596 26.9771C42.0732 27.0429 42.1866 27.1146 42.302 27.1906C42.4174 27.2666 42.5326 27.3485 42.6513 27.4333C42.7613 27.5152 42.868 27.5986 42.9658 27.6804C43.0636 27.7638 43.1545 27.8457 43.2383 27.9276C43.3256 28.0109 43.4025 28.0942 43.4741 28.1761C43.5456 28.258 43.612 28.3413 43.6732 28.4232C43.7343 28.5036 43.7884 28.5841 43.8374 28.6645C43.8846 28.7448 43.9265 28.8238 43.9632 28.9028L44.0541 29.1352L44.1117 29.3619L44.1362 29.5856L44.1257 29.799C44.1187 29.8707 44.103 29.9379 44.0838 30.0038C44.0646 30.0725 44.0401 30.1368 44.0105 30.1997L43.9667 30.2787L43.9161 30.3548L43.8584 30.4278L43.7973 30.4995L44.9658 31.3622L44.0052 32.0172L42.8646 31.1662L42.6637 31.2569L42.4629 31.3359L42.2515 31.4046L42.0384 31.4616C41.9144 31.4893 41.7764 31.5054 41.6332 31.5112C41.49 31.5185 41.3466 31.5171 41.2157 31.5098C41.0865 31.5054 40.9695 31.4952 40.8822 31.4864C40.7965 31.4776 40.739 31.4703 40.7302 31.4688L40.6883 31.4673L40.6446 31.46L40.5974 31.4483L40.5503 31.4307L40.5258 31.4205L40.5013 31.4073L40.4768 31.3927L40.4523 31.381L40.3877 31.3357L40.3353 31.286L40.2952 31.2363L40.269 31.1822L39.9441 30.3021L39.9371 30.2392L39.9581 30.1895L40.0088 30.1573L40.0839 30.1456L40.1939 30.1529C40.2532 30.1573 40.3371 30.1602 40.428 30.1631C40.5223 30.1646 40.6218 30.1631 40.7214 30.1558C40.821 30.1499 40.9205 30.1368 41.0027 30.1163L41.2437 30.0491L41.4725 29.9613L41.6821 29.8575L41.8812 29.7362C41.9668 29.6806 42.0384 29.6221 42.0979 29.5636C42.159 29.5051 42.2062 29.4451 42.2394 29.3838C42.2761 29.3224 42.2987 29.2595 42.3075 29.1951L42.304 28.9978L42.2323 28.796L42.1084 28.5987C42.0594 28.5329 42 28.4671 41.932 28.4042C41.8639 28.3413 41.787 28.2771 41.7049 28.2142L41.567 28.1177L41.4342 28.0343L41.3032 27.9612L41.1721 27.9013L41.0796 27.8662L40.9923 27.8369L40.9014 27.8135L40.8123 27.7945L40.6009 27.7799L40.3791 27.7989L40.1521 27.8545L39.9198 27.9466L39.0552 28.3778C38.8945 28.4582 38.7303 28.5241 38.5661 28.5782C38.4002 28.6309 38.2342 28.6703 38.0649 28.6951C37.8972 28.7229 37.7277 28.7331 37.5566 28.7317C37.3818 28.7302 37.209 28.7156 37.0308 28.6864L36.8125 28.6441L36.5907 28.5841C36.5156 28.5622 36.4388 28.5388 36.3637 28.511C36.2868 28.4832 36.2118 28.454 36.1366 28.4218C36.0266 28.3765 35.9148 28.3253 35.8047 28.2698C35.6929 28.2128 35.5812 28.1513 35.4694 28.0855C35.3541 28.0182 35.2405 27.9466 35.1235 27.8706C35.0099 27.7931 34.8929 27.7126 34.7759 27.6234C34.6571 27.5372 34.5471 27.4495 34.4406 27.3617C34.3375 27.2725 34.2397 27.1863 34.1506 27.0985C34.0597 27.0137 33.9777 26.9259 33.9009 26.8397C33.8257 26.7549 33.7577 26.6686 33.6982 26.5808C33.6353 26.4961 33.5811 26.4112 33.5305 26.3264C33.4833 26.243 33.4414 26.1598 33.4047 26.0764L33.3157 25.8337L33.2632 25.5938C33.251 25.5149 33.2458 25.4374 33.2458 25.3614C33.2476 25.2868 33.2545 25.2122 33.2685 25.1377C33.2825 25.0631 33.3035 24.9914 33.3296 24.9198C33.3558 24.8482 33.3908 24.7766 33.4292 24.7078L33.4869 24.62L33.5498 24.5352L33.6163 24.449L33.6896 24.3656L32.3359 23.3626L33.2983 22.7148L34.6258 23.7003L34.8634 23.5862L35.108 23.4867L35.3629 23.402L35.6284 23.3333C35.7664 23.3026 35.9393 23.2894 36.1246 23.2894C36.308 23.2865 36.5018 23.2982 36.6835 23.3143C36.8617 23.3289 37.0241 23.3465 37.1481 23.364C37.2721 23.3786 37.3524 23.3918 37.3682 23.3933L37.4083 23.3962L37.4503 23.405L37.4956 23.4166L37.5404 23.4341Z" fill="#4B4B4B"/>
</svg>
