<svg width="51" height="49" viewBox="0 0 51 49" fill="none" xmlns="http://www.w3.org/2000/svg">
<path d="M22.1512 9.03093L30.0685 3.44485L45.5344 9.20456L37.5471 14.836L40.431 15.9246L50.9989 8.46981L29.7386 0.556641L19.2656 7.94234L22.1512 9.03093Z" fill="#4B4B4B"/>
<path d="M30.6516 19.7L20.9303 26.5566L5.46604 20.7987L15.2557 13.8932L12.3702 12.8047L0 21.53L21.2603 29.4466L33.5371 20.7886L30.6516 19.7Z" fill="#4B4B4B"/>
<path d="M33.7488 24.7363L21.5 33.3724L0 25.3665V28.13L21.8299 36.2589L33.7488 27.8537V24.7363Z" fill="#4B4B4B"/>
<path d="M40.5 19.9726V23.0884L50.9994 15.6824V12.5684L40.5 19.9726Z" fill="#4B4B4B"/>
<path d="M33.7488 30.8359L21.5 39.4737L0 31.4679V34.2331L21.8299 42.3619L33.7488 33.9534V30.8359Z" fill="#4B4B4B"/>
<path d="M40.5 26.0781V29.1938L50.9994 21.7879V18.6738L40.5 26.0781Z" fill="#4B4B4B"/>
<path d="M40.5 32.1817V35.2974L50.9994 27.8914V24.7773L40.5 32.1817Z" fill="#4B4B4B"/>
<path d="M33.7488 36.9434L21.5 45.5811L0 37.5736V40.3372L21.8299 48.466L33.7488 40.0608V36.9434Z" fill="#4B4B4B"/>
<path d="M17.7012 9.04297L14.3223 11.6127L35.6293 19.6488V38.6701L39.0082 36.1021V17.0791L17.7012 9.04297Z" fill="#4B4B4B"/>
<path d="M18.0012 14.8435L18.1024 14.8469L18.2036 14.8603L18.3032 14.8806L18.4012 14.9093L19.5296 15.2817L19.6167 15.3137L19.693 15.3524L19.7553 15.3912L19.8067 15.4367L19.8471 15.4839L19.8767 15.5328L19.8954 15.5816L19.9032 15.6355L19.9016 15.6895L19.8892 15.7434L19.8673 15.7973L19.8362 15.853L19.7941 15.9119L19.7459 15.9692L19.6868 16.0231L19.6214 16.0771L19.5483 16.1276L19.4689 16.1782L19.3833 16.2237L19.2931 16.2624L19.2029 16.2995L19.111 16.3316L19.0161 16.3603L18.9181 16.3805L18.8154 16.3991L18.7142 16.4108L18.613 16.4176H18.5087L18.4107 16.4108L18.3111 16.3956L18.2145 16.3771L18.118 16.3484L16.9911 15.976L16.9009 15.9423L16.8215 15.9052L16.7577 15.8647L16.7048 15.8209L16.6627 15.7754L16.6347 15.7266L16.616 15.676L16.6113 15.6221L16.6144 15.5681L16.6253 15.5142L16.6486 15.4586L16.6798 15.4029L16.7202 15.3457L16.77 15.2884L16.8292 15.2327L16.8945 15.1788L16.9676 15.1282L17.047 15.0794L17.1326 15.0356L17.2228 14.9918L17.3131 14.9547L17.4049 14.9244L17.4998 14.8974L17.5979 14.8738L17.6975 14.857L17.7955 14.8469L17.8967 14.8418L18.0012 14.8435ZM19.0985 15.6001L17.984 15.231L17.8969 15.2091L17.8113 15.1974L17.7242 15.194L17.637 15.2042L17.5545 15.221L17.4767 15.2462L17.4051 15.2816L17.3382 15.3254L17.2837 15.3726L17.2479 15.4198L17.2292 15.4671L17.2276 15.5143L17.2478 15.5548L17.2868 15.5919L17.3459 15.6272L17.4207 15.6559L18.5366 16.025L18.6221 16.0469L18.7062 16.0603L18.7918 16.0637L18.8789 16.0569L18.963 16.0366L19.0408 16.0097L19.1108 15.9726L19.1762 15.9321L19.2306 15.8833L19.2696 15.8378L19.2883 15.7922V15.7467L19.2696 15.7029L19.2306 15.6625L19.1746 15.6287L19.0985 15.6001Z" fill="#4B4B4B"/>
<path d="M14.4622 17.5159L14.5634 17.5227L14.6615 17.5362L14.7595 17.5598L14.8575 17.5885L15.9859 17.9609L16.073 17.9912L16.1508 18.0283L16.2162 18.0688L16.2676 18.1126L16.308 18.1598L16.3376 18.2086L16.3563 18.2592L16.3641 18.3114L16.3625 18.3653L16.35 18.4193L16.3251 18.4765L16.2909 18.5338L16.2519 18.5911L16.2052 18.645L16.146 18.7023L16.0807 18.7528L16.006 18.8085L15.925 18.8573L15.8409 18.9011L15.7522 18.9416L15.6619 18.9787L15.5701 19.009L15.4752 19.0359L15.3756 19.0595L15.2744 19.0764L15.1732 19.0898L15.072 19.0966H14.9677L14.8665 19.0898L14.7684 19.0746L14.6719 19.0527L14.577 19.0258L13.4501 18.6534L13.3567 18.618L13.2789 18.5843L13.2135 18.5421L13.1637 18.4999L13.1217 18.4511L13.0921 18.4022L13.075 18.3516L13.0703 18.2977L13.0719 18.2438L13.0844 18.1882L13.1077 18.1325L13.1388 18.0786L13.1793 18.0213L13.2291 17.9657L13.2852 17.91L13.3537 17.8528L13.4284 17.8022L13.5062 17.7549L13.5903 17.7111L13.6774 17.6707L13.7709 17.632L13.8643 17.6L13.9608 17.5713L14.0573 17.5494L14.1569 17.5326L14.2566 17.5224L14.3578 17.5156H14.4622V17.5159ZM15.5594 18.2759L14.4435 17.9069L14.358 17.885L14.2692 17.8732L14.182 17.8715L14.098 17.8799L14.0155 17.8968L13.9377 17.9237L13.8646 17.9575L13.7977 18.0013L13.7448 18.0485L13.709 18.0957L13.6903 18.143L13.6872 18.1902L13.7059 18.2306L13.7433 18.2711L13.7994 18.3048L13.8757 18.3386L14.9916 18.7059L15.0771 18.7295L15.1643 18.7397L15.2514 18.7414L15.3386 18.7363L15.4227 18.7161L15.5005 18.6874L15.5705 18.652L15.6374 18.6082L15.6919 18.561L15.7293 18.5137L15.748 18.47V18.4262L15.7278 18.3824L15.6904 18.3419L15.6343 18.3066L15.5594 18.2759Z" fill="#4B4B4B"/>
<path d="M12.6899 18.8574L12.7911 18.8642L12.8907 18.8744L12.9919 18.898L13.0899 18.9249L14.2168 19.299L14.3056 19.3294L14.3819 19.3698L14.4441 19.4102L14.4939 19.454L14.5376 19.5013L14.5671 19.5485L14.5843 19.5991L14.5905 19.653V19.7069L14.5781 19.7608L14.5548 19.8165L14.5236 19.8721L14.4816 19.9311L14.4318 19.9868L14.3742 20.044L14.3073 20.0962L14.2356 20.1484L14.1563 20.1957L14.0722 20.2412L13.9787 20.2834L13.89 20.3205L13.7966 20.3508L13.7016 20.3794L13.6036 20.4013L13.5024 20.4182L13.4012 20.4316L13.2985 20.4384H13.1942L13.0962 20.4316L12.9966 20.4164L12.9001 20.3945L12.8036 20.3676L11.6767 19.9952L11.5848 19.9598L11.5071 19.9227L11.4417 19.8823L11.3903 19.8418L11.3483 19.7913L11.3218 19.7424L11.3046 19.6902L11.2969 19.638L11.2985 19.5858L11.3125 19.5302L11.3343 19.4745L11.3655 19.4206L11.4091 19.3616L11.4589 19.3043L11.515 19.2487L11.582 19.1948L11.6551 19.1442L11.7345 19.0969L11.82 19.0514L11.9103 19.0093L12.0005 18.9722L12.0924 18.9384L12.1873 18.9132L12.2853 18.8913L12.3849 18.8745L12.4861 18.861L12.5873 18.8576H12.6899V18.8574ZM13.7871 19.6173L12.6712 19.2483L12.5856 19.2246L12.4985 19.2129L12.4144 19.2095L12.3303 19.2179L12.2432 19.2348L12.1654 19.2617L12.0907 19.2988L12.0253 19.3426L11.9708 19.3899L11.9351 19.4371L11.9179 19.4843L11.9195 19.5281L11.9351 19.5719L11.974 19.609L12.0316 19.6461L12.1063 19.6764L13.2238 20.0437L13.3079 20.0673L13.3934 20.0791L13.479 20.0808L13.5693 20.074L13.6517 20.0555L13.728 20.0285L13.7981 19.9931L13.8634 19.9494L13.9179 19.9021L13.9568 19.8549L13.9771 19.8076L13.9801 19.7639L13.9583 19.7201L13.9194 19.683L13.8618 19.6459L13.7871 19.6173Z" fill="#4B4B4B"/>
<path d="M10.1808 20.2773L12.8624 21.1637L12.4375 21.4855L10.285 20.7728L10.2819 21.2884L9.75895 21.1149L9.75586 20.5992L10.1808 20.2773Z" fill="#4B4B4B"/>
<path d="M16.2316 16.1814L16.3312 16.1865L16.4324 16.1982L16.532 16.2218L16.6316 16.2488L17.7585 16.6196L17.8456 16.6533L17.9219 16.6904L17.9858 16.7309L18.0356 16.7764L18.0792 16.8219L18.1088 16.8707L18.1244 16.9229L18.1321 16.9735L18.1305 17.0274L18.1181 17.0831L18.0963 17.137L18.0651 17.1927L18.0246 17.2499L17.9764 17.3072L17.9173 17.3628L17.8503 17.4185L17.7772 17.4691L17.6994 17.5163L17.6153 17.5601L17.5266 17.6005L17.4331 17.639L17.3396 17.6711L17.2431 17.698L17.1451 17.7217L17.0455 17.7385L16.9443 17.7502L16.8447 17.7553L16.742 17.7536L16.6408 17.7485L16.5396 17.735L16.4416 17.7147L16.3466 17.6878L15.2198 17.317L15.1279 17.2799L15.0516 17.2445L14.9863 17.2024L14.9365 17.1586L14.8944 17.1114L14.8648 17.0641L14.8461 17.0135L14.8398 16.9596L14.8414 16.9057L14.8555 16.8518L14.8773 16.7945L14.9131 16.7372L14.9535 16.6833L15.0017 16.626L15.0578 16.5721L15.1231 16.5182L15.1978 16.466L15.2788 16.4172L15.3629 16.3734L15.4516 16.3312L15.5404 16.2958L15.6338 16.2621L15.7288 16.2351L15.8268 16.2148L15.9264 16.198L16.0276 16.1845L16.1288 16.1777L16.2316 16.1814ZM17.3273 16.9397L16.2129 16.5706L16.1273 16.5487L16.0417 16.5352L15.9545 16.5319L15.8704 16.5387L15.7863 16.559L15.7085 16.5842L15.6354 16.6196L15.5669 16.6634L15.5124 16.7122L15.4781 16.7577L15.4594 16.805L15.461 16.8487L15.4781 16.8925L15.5155 16.933L15.5731 16.9667L15.6494 16.997L16.7653 17.3644L16.8508 17.388L16.9349 17.4015H17.0221L17.1123 17.3947L17.1933 17.3744L17.2696 17.3492L17.3396 17.3138L17.405 17.27L17.4625 17.2228L17.4999 17.1755L17.5201 17.1283L17.5217 17.0845L17.4999 17.0407L17.461 17.0036L17.4034 16.9699L17.3273 16.9397Z" fill="#4B4B4B"/>
<path d="M27.292 9.14992L27.3511 9.10775L27.4227 9.05556L27.5083 8.99656L27.6063 8.93089L27.7137 8.85841L27.8304 8.77753L27.958 8.68317L28.095 8.57532L28.1946 8.49616L28.3005 8.41021L28.4095 8.31584L28.5246 8.21468L28.5838 8.16076L28.643 8.11018L28.699 8.06295L28.7551 8.01916C28.9574 7.85739 29.138 7.7462 29.2936 7.66866C29.4508 7.5895 29.5831 7.54734 29.692 7.5221C29.801 7.49686 29.8851 7.49341 29.9426 7.49686L30.0392 7.51035L30.0594 7.44963L30.0921 7.39571L30.1388 7.33844L30.1994 7.28452C30.3146 7.19349 30.4874 7.11261 30.6928 7.05362C30.8998 6.99463 31.1395 6.95419 31.3947 6.94405C31.6469 6.93391 31.9146 6.95246 32.1714 7.00811C32.4298 7.06203 32.6788 7.1564 32.8982 7.29455L33.0119 7.37543L33.1099 7.46311L33.1924 7.55241L33.2624 7.64504L33.3449 7.67707L33.5223 7.67373L33.7013 7.69897L33.8709 7.75623L34.025 7.84725L34.1511 7.96189L34.243 8.07653L34.3146 8.2012L34.3738 8.33935L34.4578 8.43706L34.5356 8.53822L34.6026 8.64434L34.6586 8.75391L34.7225 8.81463C34.8782 8.92927 34.9653 9.04887 35.0213 9.16847C35.0773 9.28807 35.1023 9.40778 35.1303 9.52911C35.1583 9.64709 35.1909 9.76507 35.2642 9.8796C35.3374 9.99414 35.4509 10.1054 35.644 10.2099C35.742 10.2639 35.9242 10.2268 36.1653 10.1543C36.4082 10.0818 36.7116 9.97397 37.054 9.8864C37.3965 9.80217 37.7793 9.73811 38.1809 9.75159C38.5825 9.76507 39.0027 9.85771 39.4198 10.0853L39.4292 10.1898C39.4168 10.2605 39.3763 10.3718 39.258 10.5436C39.1412 10.7122 38.9498 10.9413 38.637 11.2463C38.3242 11.5513 37.8915 11.9321 37.2939 12.4039C36.6946 12.8791 36.2044 13.2296 35.8059 13.4892C35.4075 13.7453 35.1009 13.9122 34.869 14.0183C34.6355 14.1261 34.4768 14.1734 34.3741 14.1935C34.2714 14.2137 34.2246 14.207 34.2153 14.207C33.7981 13.9778 33.5834 13.7251 33.4884 13.4656C33.3935 13.2094 33.4184 12.9516 33.4837 12.714C33.5491 12.478 33.6534 12.2623 33.7172 12.0922C33.7811 11.922 33.8044 11.7973 33.7048 11.7434C33.5133 11.6389 33.3266 11.585 33.1414 11.5597C32.9577 11.5345 32.774 11.5345 32.5905 11.5378C32.4069 11.5412 32.2216 11.548 32.0317 11.5345C31.8434 11.521 31.6489 11.4839 31.4481 11.4048L31.2879 11.3491L31.1322 11.312L30.9828 11.2917L30.8411 11.2783C30.7415 11.2732 30.6513 11.2681 30.5656 11.2614C30.4815 11.2546 30.4021 11.2479 30.3259 11.2378C30.2497 11.2277 30.1765 11.2142 30.1034 11.1974C30.0287 11.1805 29.954 11.1603 29.8746 11.13C29.7952 11.1013 29.7299 11.0659 29.6754 11.0255L29.5509 10.8973L29.4933 10.7557L29.4996 10.6141L29.4435 10.5602C29.084 10.5299 28.7742 10.4456 28.5097 10.3377C28.2451 10.2299 28.0272 10.0951 27.8482 9.96027C27.6692 9.82719 27.5322 9.69238 27.4295 9.58109C27.3268 9.46817 27.2614 9.38222 27.2272 9.3435L27.1992 9.29627L27.2008 9.25248L27.232 9.20525L27.292 9.14992Z" fill="#4B4B4B"/>
</svg>
