<svg width="63" height="57" viewBox="0 0 63 57" fill="none" xmlns="http://www.w3.org/2000/svg">
<g clip-path="url(#clip0_391_1846)">
<path d="M62.2207 28.5C61.9695 26.507 60.9595 24.6165 59.3065 23.0359C58.9393 22.6847 58.5424 22.3478 58.1207 22.0315C56.9684 21.1677 55.6545 20.4804 54.2509 19.9463V9.90475H54.1788C53.9275 7.91164 52.9175 6.02118 51.2628 4.44055C50.8975 4.09086 50.5021 3.75321 50.0771 3.43458L49.9279 3.32337L50.0771 3.43536C46.989 1.1292 42.8223 0.00400781 38.587 0C35.2441 0.00155859 31.8416 0.706377 28.8588 2.17346L18.7898 7.12656L18.1978 7.41824C17.5408 7.74087 16.933 8.10246 16.3516 8.48231L7.62288 12.7767H7.6246C4.22383 14.4455 1.81187 16.9575 0.993361 19.9144L0.991516 19.9176C0.801777 20.613 0.707031 21.3147 0.707031 22.0108C0.707031 22.1062 0.71749 22.1999 0.721059 22.2953V32.3654H0.715768C0.71749 32.3813 0.719213 32.3973 0.720936 32.4131V32.4567H0.724381C0.850873 34.5476 1.84866 36.5413 3.5648 38.1855C3.92495 38.5368 4.31489 38.8594 4.71184 39.1582L4.71368 39.159C7.67358 41.3682 11.6612 42.4442 15.7137 42.4481C16.8222 42.4481 17.9359 42.3567 19.039 42.1922V46.4897H19.0339C19.0356 46.5057 19.039 46.5216 19.039 46.5374V46.5883H19.0443C19.1761 48.7633 20.2143 50.8413 22.0078 52.5547C22.3803 52.9186 22.7859 53.2564 23.2023 53.5679L23.2006 53.5671C26.2888 55.8716 30.4537 56.9969 34.689 57.0001C38.0301 56.9993 41.4327 56.2944 44.4172 54.829L55.0765 49.5802L55.0747 49.581C58.6248 47.839 61.1456 45.2207 61.9941 42.1358C62.1926 41.4103 62.2927 40.6783 62.2927 39.9528V39.8272V28.5H62.2207ZM52.2871 21.2494H52.7771V21.251L52.2836 21.2573C52.2835 21.2573 52.2853 21.2519 52.2871 21.2494ZM30.1498 4.31742C32.6864 3.06664 35.6656 2.44042 38.587 2.4412C42.2953 2.43809 45.8823 3.45362 48.3574 5.31547L48.4856 5.41244L48.3574 5.31625C48.6929 5.56652 49.0091 5.83604 49.3025 6.11737C50.6674 7.42937 51.3911 8.88443 51.5299 10.3864L51.5528 10.3848V12.7116C50.7342 14.8738 48.8125 16.8311 45.9623 18.2329L44.9724 18.7208L27.6082 5.56741L30.1498 4.31742ZM46.1722 25.5661L45.6382 25.8299V23.4204L46.6027 22.9453C48.7001 21.9169 50.3882 20.5811 51.5528 19.0442V20.748C50.5374 22.6448 48.6964 24.3255 46.1722 25.5661ZM51.4175 22.5384C51.3894 22.6766 51.3718 22.814 51.3332 22.9532C50.7113 25.2283 48.786 27.3453 45.7454 28.8409L45.6382 28.8941V26.7564L46.6079 26.2781C48.628 25.2848 50.2599 24.0054 51.4175 22.5384ZM46.174 22.2308L45.6382 22.4938V20.245L46.8204 19.6632L46.8186 19.664C48.765 18.7088 50.3653 17.4834 51.5527 16.0761V17.4127C50.5374 19.3096 48.6983 20.9911 46.174 22.2308ZM23.667 40.2173L23.6451 40.1966C22.9003 39.4822 22.3558 38.7169 21.964 37.9247C23.4799 38.2441 25.0574 38.403 26.6454 38.4046C29.9884 38.4039 33.3909 37.6989 36.3755 36.2328L38.8137 35.0328L46.2336 40.6536L43.3423 42.0777C40.7301 43.3626 37.6806 44.0015 34.6891 44.0008C30.893 44.0031 27.2112 42.9692 24.6341 41.0342C24.2854 40.7728 23.9551 40.4963 23.667 40.2173ZM15.28 25.52L15.2764 25.5169C14.6177 24.8891 14.0943 24.2168 13.6955 23.5166V22.0934C13.8835 22.3047 14.0801 22.513 14.291 22.7148C14.6495 23.0645 15.043 23.3903 15.4452 23.6923C18.4297 25.9238 22.4999 27.0308 26.6454 27.0331C29.9181 27.0323 33.2505 26.3409 36.1611 24.9113L38.4781 23.7702V26.0192L35.5164 27.4766C32.8287 28.798 29.7071 29.4497 26.6472 29.4497C22.7632 29.4506 18.9865 28.4 16.3077 26.3927V26.3919C15.9386 26.1176 15.5909 25.8251 15.28 25.52ZM14.6196 26.073C14.6213 26.0739 14.6213 26.0747 14.6213 26.0747C14.6231 26.0754 14.6231 26.0763 14.6231 26.0763C14.9656 26.41 15.3415 26.7248 15.735 27.0188C18.6176 29.1748 22.5876 30.2619 26.6472 30.2634C29.8477 30.2625 33.1098 29.5848 35.9468 28.1917L38.4781 26.9441V29.3536L35.5164 30.8109C32.8269 32.1324 29.7071 32.7848 26.6453 32.7841C22.7632 32.7857 18.9864 31.7343 16.3075 29.7271C15.9386 29.4514 15.5908 29.1613 15.2798 28.8552L15.2763 28.8514C14.6176 28.2236 14.0942 27.5513 13.6954 26.8512V25.0664C13.9731 25.4126 14.2805 25.7489 14.6196 26.073ZM25.9094 6.40337L43.2736 19.5568L39.8903 21.2216L22.5244 8.06906L25.9094 6.40337ZM43.8394 21.1303V23.4006V26.7366V29.7794L40.2769 31.534V29.3734V26.0389V22.8848L43.8394 21.1303ZM13.8975 15.4531C14.3964 13.6414 15.728 11.9352 17.7797 10.558L19.0865 9.91522L19.0251 9.81346C19.1797 9.73075 19.3255 9.64257 19.4853 9.56386L20.8256 8.90503L38.1917 22.0576L35.3003 23.4809C32.6883 24.7674 29.637 25.4064 26.6453 25.4055C22.851 25.4079 19.1691 24.374 16.5921 22.4391C16.2373 22.1728 15.9 21.8915 15.6085 21.607L15.6032 21.6014C14.7109 20.7456 14.0837 19.8197 13.6955 18.8559V18.1819L13.7921 18.1661C13.7377 17.8928 13.7095 17.6153 13.6955 17.3371V16.9263H13.6885C13.6989 16.4417 13.764 15.9505 13.8975 15.4531ZM13.7307 33.7162C10.7549 33.4229 7.95658 32.4812 5.86614 30.9134L5.95227 30.9785L5.86442 30.9134C5.51484 30.652 5.18286 30.373 4.88595 30.0822L4.8825 30.0791C4.27822 29.5028 3.79329 28.8879 3.41923 28.2488V26.9599C3.57205 27.126 3.73202 27.2896 3.89887 27.4502L3.91646 27.4661L3.89358 27.4446C4.23602 27.78 4.61377 28.0931 5.00014 28.3832V28.3824C6.92902 29.827 9.33372 30.7711 11.9108 31.2377C12.3604 32.1173 12.9736 32.9493 13.7307 33.7162ZM3.61069 20.5041C4.20267 18.3521 6.02266 16.3432 8.91217 14.9223L9.20908 14.776L11.7878 13.5061C11.5857 13.948 11.4083 14.3977 11.2802 14.8619L11.2784 14.865C11.0817 15.5897 10.9833 16.3199 10.9833 17.0456C10.9833 17.1433 10.9937 17.2402 10.9973 17.3379V27.8943H10.992C10.9937 27.9101 10.9956 27.926 10.9973 27.9419V27.9928H11.0026C11.0307 28.476 11.1062 28.9534 11.224 29.424C9.3021 28.956 7.5525 28.1836 6.14718 27.129C5.80991 26.8771 5.49023 26.6084 5.21276 26.3383L5.19517 26.3209L5.20747 26.3328C4.37481 25.5341 3.78813 24.6711 3.41923 23.7748V23.0858L3.51065 23.0706C3.45971 22.8148 3.43338 22.5557 3.41923 22.2951V21.8978H3.41222C3.42268 21.4393 3.48235 20.9753 3.61069 20.5041ZM3.41911 29.7548C3.6668 30.0559 3.93037 30.3524 4.22543 30.6345V30.6353C4.22728 30.6361 4.22728 30.6368 4.229 30.6377V30.6386C4.55569 30.9565 4.91056 31.256 5.28647 31.5357L5.17757 31.4546L5.29176 31.5405C7.81422 33.4255 11.2028 34.4418 14.7266 34.6056C14.8743 34.7255 15.0077 34.8598 15.1588 34.9726L15.2641 35.0505L15.1588 34.9718C16.1513 35.7125 17.265 36.3188 18.4472 36.8179C17.5408 36.9394 16.6255 37.007 15.7174 37.007C12.0161 37.0078 8.41678 36.0065 5.86614 34.0946L5.95227 34.1598L5.86442 34.0946C5.51312 33.8324 5.18286 33.555 4.88595 33.265L4.8825 33.2618C4.27822 32.6849 3.79329 32.0706 3.41923 31.4309L3.41911 29.7548ZM19.0392 39.7191C17.9413 39.9083 16.8224 40.0068 15.7138 40.0068C12.1883 40.01 8.78038 39.0437 6.43351 37.2787L6.43523 37.2794C6.10854 37.0347 5.80289 36.778 5.54117 36.5238L5.53416 36.5166C4.41345 35.4374 3.75638 34.263 3.5157 33.0423C3.73878 33.3061 3.96544 33.5683 4.22543 33.8179C4.22728 33.8187 4.22728 33.8195 4.229 33.8203V33.821C4.55754 34.1405 4.91585 34.4417 5.29348 34.7221H5.29176C8.04788 36.7811 11.8404 37.8197 15.7174 37.8205C16.824 37.8205 17.9377 37.7283 19.0392 37.5567V39.7191ZM16.8786 33.0916V33.0908C16.5378 32.8357 16.2145 32.5656 15.9388 32.2954L15.93 32.2874C14.7074 31.1104 14.0048 29.8264 13.771 28.4904C14.0292 28.8043 14.3104 29.1111 14.6177 29.4059C14.6194 29.4059 14.6194 29.4059 14.6194 29.4059C14.6212 29.4074 14.6212 29.409 14.623 29.4107C14.9673 29.7483 15.3431 30.0615 15.7349 30.3547C18.6175 32.5099 22.5875 33.597 26.6453 33.5978C29.8477 33.5978 33.1097 32.9199 35.9467 31.5261L38.478 30.2786V32.4193L35.086 34.089C32.5476 35.339 29.5683 35.9652 26.6453 35.9637C22.939 35.9674 19.3537 34.9519 16.8786 33.0916ZM46.52 51.0146L43.1278 52.6849V52.6841C40.5896 53.9342 37.6103 54.5604 34.689 54.5589C30.9807 54.5628 27.3954 53.5473 24.922 51.687L24.9203 51.6862C24.5796 51.431 24.2581 51.1609 23.9806 50.8906L23.97 50.8804L23.9718 50.882C22.7509 49.7075 22.0483 48.4225 21.8146 47.0859C22.0728 47.4006 22.3521 47.7073 22.6613 48.0029C23.0056 48.339 23.3814 48.6545 23.7767 48.9502C26.6595 51.1053 30.6293 52.1925 34.689 52.194C37.8896 52.1932 41.1517 51.5153 43.9886 50.1215L46.52 48.8755V51.0146ZM46.52 47.9487L43.5582 49.4061C40.8706 50.7284 37.7491 51.38 34.689 51.38C30.805 51.3808 27.0284 50.3296 24.3512 48.3222C23.9806 48.0472 23.6345 47.7555 23.3218 47.4496L23.3184 47.4465C22.6614 46.8187 22.1361 46.1464 21.7375 45.4471V43.6616C22.0151 44.008 22.3224 44.3441 22.6615 44.6684C23.0058 45.0045 23.3835 45.32 23.7787 45.6148L23.777 45.6132C26.6597 47.7691 30.6314 48.857 34.6893 48.8578C37.8898 48.8578 41.1519 48.18 43.9889 46.7861L46.5202 45.5401V47.9487H46.52ZM46.52 44.6135L43.5582 46.0709C40.8706 47.3933 37.7508 48.0449 34.689 48.0441C30.8069 48.0458 27.0284 46.9944 24.3512 44.9862L24.3459 44.9831C23.9788 44.7097 23.6328 44.4205 23.3218 44.1153L23.3184 44.1122C22.6596 43.4835 22.1361 42.8121 21.7375 42.112V40.6886C21.9272 40.9008 22.124 41.1099 22.3347 41.3118C22.6949 41.6614 23.0848 41.9872 23.4871 42.2877C26.4733 44.5198 30.5417 45.626 34.6891 45.6285C37.96 45.6276 41.2923 44.9363 44.203 43.5066L46.5201 42.3655V44.6135H46.52ZM40.5123 34.1961L43.8956 32.5304L51.3156 38.1511L47.9323 39.8175L40.5123 34.1961ZM51.8812 41.9959V45.331V48.3739L48.3188 50.1285V47.9694V44.6342V41.4794L51.8812 39.7255V41.9959ZM59.375 41.5477C58.7532 43.8237 56.8297 45.9398 53.7872 47.4354L53.6801 47.4878V45.3517L54.6445 44.8766C56.6681 43.8841 58.3018 42.6023 59.4613 41.1337C59.433 41.2719 59.4137 41.4086 59.375 41.5477ZM59.5947 39.344C58.5793 41.2402 56.7401 42.9217 54.2158 44.1613L53.6801 44.4252V42.0158L54.6445 41.5406C56.742 40.5123 58.4302 39.1765 59.5947 37.6404V39.344ZM59.5947 36.0089C58.5793 37.9057 56.7401 39.5872 54.2158 40.8261L53.6801 41.0891V38.8395L54.7042 38.3356L54.8605 38.2586C56.8068 37.3034 58.4072 36.0788 59.5946 34.6715L59.5947 36.0089ZM59.5947 31.3067C58.7762 33.4698 56.8543 35.4263 54.0033 36.8281L53.8715 36.8925L53.0127 37.3152L45.5944 31.6944L46.7977 31.1024L47.0331 30.9864C50.5832 29.2446 53.104 26.6252 53.9525 23.5412C54.0386 23.2249 54.0983 22.9087 54.1475 22.5916C54.9626 22.9698 55.725 23.4053 56.3977 23.9107C56.7368 24.1642 57.0529 24.4328 57.3428 24.7117C58.7094 26.0245 59.435 27.4796 59.5719 28.9832L59.5948 28.9815V31.3067H59.5947ZM60.3253 39.8526C60.3253 39.8502 60.3272 39.847 60.3289 39.8446H60.9436L60.3253 39.8526Z" fill="#4B4B4B"/>
<path d="M22.3312 41.3092C22.333 41.3098 22.333 41.3107 22.3348 41.3123L22.3203 41.2988L22.3312 41.3092Z" fill="#4B4B4B"/>
<path d="M14.2947 22.7185C14.2947 22.7185 14.2928 22.7161 14.2909 22.7144L14.2891 22.7129L14.2947 22.7185Z" fill="#4B4B4B"/>
<path d="M15.7346 27.0194C15.7346 27.0186 15.7346 27.0186 15.7346 27.0186L15.6484 26.9551L15.7346 27.0194Z" fill="#4B4B4B"/>
<path d="M46.7018 26.2324L46.6088 26.2785C46.607 26.2793 46.6054 26.2808 46.6035 26.2816L46.7018 26.2324Z" fill="#4B4B4B"/>
</g>
<defs>
<clipPath id="clip0_391_1846">
<rect width="63" height="57" fill="white"/>
</clipPath>
</defs>
</svg>
