<svg width="52" height="52" viewBox="0 0 52 52" fill="none" xmlns="http://www.w3.org/2000/svg">
<path d="M52 35.353H51.9546L43.9402 14.9119C44.7026 15.2174 45.3481 15.481 45.8483 15.6892L46.7869 12.928C44.1196 11.8152 37.6146 9.25188 30.4966 6.92913C30.4966 5.71064 30.0465 4.60131 29.3264 3.80265C28.6078 3.00219 27.6046 2.50734 26.5059 2.50734C25.4073 2.50734 24.4017 3.0023 23.6839 3.80265C23.4469 4.06376 23.2423 4.35901 23.0723 4.68162C16.0226 2.70514 9.43536 1.26396 6.67723 0.724609L6.21491 3.63019C6.7988 3.74453 7.56742 3.90234 8.48301 4.09868L0.0461094 25.6166H0C0.00609375 25.6388 0.0131016 25.661 0.0191953 25.6832L0.00223438 25.7266L0.0369687 25.7437C1.3387 30.3192 5.19167 33.6376 9.74624 33.6376C14.3015 33.6376 18.1546 30.3191 19.4555 25.7437L19.491 25.7266L19.474 25.6832C19.4802 25.661 19.4871 25.6388 19.4933 25.6166H19.4471L11.2503 4.71136C14.3962 5.42903 18.4083 6.41209 22.5583 7.57763C22.6859 8.54019 23.093 9.40801 23.6838 10.059C24.0315 10.4473 24.4485 10.7621 24.9094 10.9857V42.1179C23.1083 42.1179 21.7058 42.1179 21.7058 42.1179C21.7058 42.1179 20.938 47.4427 17.4821 48.2925V51.0616H35.5289V48.2925C32.0737 47.4427 31.3051 42.1179 31.3051 42.1179C31.3051 42.1179 29.9026 42.1179 28.1015 42.1179V10.9857C28.5616 10.7621 28.9778 10.4473 29.3264 10.059C29.4242 9.94972 29.5203 9.8355 29.6079 9.71429C33.8463 11.0958 37.89 12.572 41.0159 13.7692L32.553 35.353H32.5069C32.513 35.376 32.5199 35.3974 32.5269 35.4196L32.5092 35.4631L32.5438 35.4801C33.8456 40.0555 37.6985 43.3741 42.2538 43.3741C46.8084 43.3741 50.6613 40.0563 51.963 35.481L51.9977 35.4631L51.9807 35.4196C51.9869 35.3974 51.9946 35.376 52 35.353ZM17.7067 25.6166H1.78648L9.74695 5.31469L17.7067 25.6166ZM28.0092 8.59989C27.8522 8.77314 27.6714 8.9233 27.4713 9.03256C27.1844 9.20063 26.8574 9.29289 26.5058 9.29289C25.9157 9.29289 25.3887 9.02997 25.0002 8.59989C24.8918 8.47531 24.7924 8.34306 24.7078 8.19549C24.4978 7.83199 24.3778 7.4019 24.3778 6.93262C24.3778 6.27725 24.6148 5.69284 25.0002 5.26186C25.0088 5.2533 25.0164 5.24485 25.0249 5.23877C25.4103 4.82491 25.9258 4.57247 26.5059 4.57247C27.0968 4.57247 27.6238 4.83516 28.0093 5.26186C28.267 5.54855 28.4617 5.90529 28.5602 6.30631C28.6078 6.50434 28.6347 6.7142 28.6347 6.93262C28.6346 7.58788 28.3977 8.1715 28.0092 8.59989ZM34.2933 35.353L42.2538 15.0509L50.2135 35.353H34.2933Z" fill="#4B4B4B"/>
</svg>
