<svg width="55" height="57" viewBox="0 0 55 57" fill="none" xmlns="http://www.w3.org/2000/svg">
<g clip-path="url(#clip0_391_1657)">
<path d="M39.9499 0C33.8738 0 28.9492 6.3005 28.9492 13.4116C28.9492 17.7395 30.913 21.5559 33.3132 23.9321C35.4197 26.0195 36.7138 27.6269 36.9723 31.1145V54.1108C36.9723 55.7059 38.2211 57.0001 39.7603 57.0001H40.138C41.6771 57.0001 42.9259 55.7059 42.9259 54.1108V31.1144C43.1843 27.6267 44.4784 26.0194 46.585 23.932C48.9852 21.5558 50.949 17.7394 50.949 13.4115C50.9488 6.3005 46.0225 0 39.9499 0Z" fill="#4B4B4B"/>
<path d="M20.2588 2.7335V14.91C20.2588 15.6875 19.6512 16.319 18.9009 16.319H18.5366C17.788 16.319 17.1787 15.6875 17.1787 14.91V2.67784C17.1787 0.672152 15.8762 0.0703125 14.6257 0.0703125C13.3769 0.0703125 12.0744 0.672152 12.0744 2.67784V14.91C12.0744 15.6875 11.4651 16.319 10.7149 16.319H10.3523C9.6021 16.319 8.99441 15.6875 8.99441 14.91V2.7335C8.99441 -0.858609 4.05301 -0.736816 4.05301 2.77347C4.05301 6.97611 4.05301 14.4004 4.05301 14.4004C4.02948 20.8574 5.51835 22.5325 7.97563 24.5451C9.95627 26.1664 11.6498 27.0918 11.6498 31.1169V54.1114C11.6498 55.7065 12.8968 57.0007 14.4377 57.0007H14.8154C16.3545 57.0007 17.6033 55.7065 17.6033 54.1114V31.1169C17.6033 27.0918 19.2952 26.1663 21.2758 24.5451C23.7348 22.5325 25.2236 20.8574 25.2001 14.4004C25.2001 14.4004 25.2001 6.97611 25.2001 2.77347C25.2002 -0.736816 20.2588 -0.858609 20.2588 2.7335Z" fill="#4B4B4B"/>
</g>
<defs>
<clipPath id="clip0_391_1657">
<rect width="55" height="57" fill="white"/>
</clipPath>
</defs>
</svg>
