<svg width="48" height="48" viewBox="0 0 48 48" fill="none" xmlns="http://www.w3.org/2000/svg">
<path d="M0.81675 38.3453L47.1847 38.2863C47.6352 38.2863 47.9984 37.9216 47.9984 37.4726V35.777C47.9984 35.5564 47.9095 35.3448 47.7502 35.1917C47.5908 35.0376 47.3763 34.9558 47.1572 34.9634L0.786094 36.5693C0.347906 36.5854 0 36.9448 0 37.383V37.5309C0 37.7477 0.087375 37.9546 0.239062 38.1071C0.39225 38.2603 0.599156 38.3453 0.81675 38.3453Z" fill="#4B4B4B"/>
<path d="M47.1868 40.0492L0.817203 39.9902C0.601203 39.9902 0.394297 40.0761 0.241016 40.2285C0.0878281 40.3817 0.00195312 40.5885 0.00195312 40.8054V40.9525C0.00195312 41.3908 0.349766 41.7509 0.787953 41.7661L47.1576 43.372C47.3782 43.3797 47.5928 43.2977 47.7522 43.1445C47.91 42.9904 48.0005 42.7798 48.0005 42.5583V40.8635C48.0005 40.414 47.6358 40.0492 47.1868 40.0492Z" fill="#4B4B4B"/>
<path d="M8.9923 20.4273C9.21908 20.644 9.47502 20.8096 9.74933 20.9238C9.87955 20.6603 10.0297 20.386 10.2013 20.0887C10.5569 19.4251 12.29 16.5498 16.4486 14.8175C17.653 14.3149 19.1547 13.672 20.658 13.0293C25.1062 11.1284 26.9926 10.3355 27.7388 10.1424C28.8451 9.85651 29.9928 9.71176 31.1543 9.71176C31.234 9.71176 31.309 9.71401 31.3857 9.71486L31.3398 9.66498L27.1749 5.66486C26.51 5.02736 25.8418 4.88336 24.688 4.74086C24.688 4.74086 22.863 4.37467 20.6105 4.95545C19.7217 5.18608 13.637 7.86151 10.1493 9.31408C6.66177 10.7683 5.44967 13.2139 5.44967 13.2139C4.84592 14.2543 4.72639 14.6421 4.70033 15.3446C4.67427 16.0487 4.80908 16.411 5.31636 16.8984L8.9923 20.4273Z" fill="#4B4B4B"/>
<path d="M27.9358 11.4929C26.9674 11.7427 20.3492 14.6541 16.5552 16.234C12.7613 17.8145 11.4434 20.4754 11.4434 20.4754C10.7861 21.6078 10.6558 22.0285 10.6282 22.7931C10.6006 23.5585 10.7462 23.9538 11.2977 24.4832L15.2971 28.3225C16.2839 29.2686 17.8224 29.3253 18.8766 28.4519C18.8766 28.4519 18.898 28.4144 18.9348 28.3585C19.2367 28.6358 19.5279 28.9031 19.793 29.143C20.1515 29.4678 20.4671 29.7497 20.7185 29.9674C20.8441 30.0754 20.9545 30.1689 21.048 30.244C21.1461 30.3221 21.2166 30.3788 21.3116 30.4386C21.5398 30.5796 21.8571 30.7933 22.2585 30.9742C22.6585 31.1549 23.1519 31.3044 23.7204 31.3036C24.1693 31.3044 24.6567 31.2109 25.1607 30.9956L25.1668 30.9925L33.4567 27.2377C34.0006 27.0078 34.4419 26.7925 34.8112 26.5504C35.0901 26.3673 35.3322 26.1665 35.5314 25.9305C35.8317 25.5766 36.0064 25.1529 36.0891 24.7223C36.1719 24.2878 36.1842 23.8397 36.1856 23.314C36.1856 22.9869 36.1796 22.6299 36.178 22.2307L36.1627 18.9968C37.1725 18.796 38.7446 18.9263 38.7446 18.9263C39.2794 18.898 39.7468 18.5539 39.9337 18.0528C40.1206 17.551 39.992 16.9855 39.6042 16.6139L35.0747 12.2652C34.3514 11.5703 33.6252 11.414 32.3701 11.2585C32.3703 11.2585 30.3845 10.8601 27.9358 11.4929ZM34.744 19.5055L34.7561 22.2368C34.7561 22.6459 34.7622 23.0046 34.7622 23.314C34.7638 23.7568 34.7501 24.1025 34.7101 24.3568C34.678 24.5491 34.6366 24.687 34.5815 24.8012C34.4971 24.9683 34.3854 25.1092 34.1233 25.2985C33.8644 25.4824 33.4629 25.693 32.8868 25.9343L32.8791 25.9381L24.6 29.6869C24.2583 29.8309 23.9748 29.88 23.7205 29.8808C23.3987 29.8808 23.1167 29.8003 22.8425 29.677C22.5682 29.5544 22.3153 29.3897 22.0655 29.2326C22.0579 29.2281 21.9951 29.182 21.9153 29.1161C21.6088 28.8649 21.0005 28.3209 20.2804 27.6642C20.1287 27.524 19.9617 27.3692 19.7993 27.2206C20.6864 26.1931 22.2219 24.7528 24.459 23.8204C27.5328 22.5395 32.4761 20.428 34.744 19.5055Z" fill="#4B4B4B"/>
</svg>
