<svg width="48" height="48" viewBox="0 0 48 48" fill="none" xmlns="http://www.w3.org/2000/svg">
<g clip-path="url(#clip0_332_385)">
<path d="M44.1743 21.6627L25.4619 3.16173L25.466 3.17045C23.3571 1.05667 20.5776 -0.00467204 17.8114 1.54589e-05C15.0492 -0.00467204 12.2696 1.05667 10.1605 3.17045C8.04742 5.27889 6.98645 8.05408 6.99039 10.8213C6.98645 13.5871 8.04733 16.3663 10.1605 18.4755L14.5767 22.8443C14.4436 22.8402 14.3103 22.8402 14.1775 22.8402C10.5557 22.8402 7.26564 23.7509 4.80395 25.2928C3.57527 26.0658 2.54861 26.998 1.81839 28.0849C1.08414 29.1677 0.654297 30.4132 0.654297 31.7278V39.1077C0.654297 40.4217 1.08414 41.6679 1.81839 42.7507C2.91827 44.3785 4.66623 45.671 6.79717 46.5785C8.93214 47.4845 11.4624 47.9953 14.1775 48C17.7942 47.9953 21.0846 47.0852 23.5459 45.5427C24.7786 44.7738 25.801 43.8376 26.5356 42.7508C27.2662 41.6679 27.6956 40.4218 27.6956 39.1078V35.8131L28.8726 36.9779L28.8685 36.9685C30.9774 39.0817 33.757 40.1437 36.523 40.139C39.2855 40.1437 42.0648 39.0817 44.1742 36.9732C46.2873 34.8594 47.3442 32.0848 47.3442 29.3177C47.3443 26.5511 46.2874 23.7759 44.1743 21.6627ZM13.2625 13.9393C11.4713 12.1441 11.4713 9.19277 13.288 7.37598C14.1641 6.49952 15.3325 6.01427 16.5788 6.01427L13.2625 13.9393ZM2.80211 31.7278C2.80614 30.8816 3.06827 30.0744 3.5973 29.2833C4.06136 28.5924 4.74395 27.9303 5.59858 27.3422L22.0341 36.9604C21.6604 37.1661 21.2652 37.3597 20.8481 37.5357C18.9625 38.3389 16.6601 38.8115 14.1776 38.8115C10.8608 38.8162 7.87108 37.9653 5.76227 36.6378C4.7057 35.9725 3.87227 35.194 3.3137 34.3613C3.10698 34.0514 2.93561 33.7383 2.8022 33.4163L2.80211 31.7278ZM25.5479 39.1078C25.5479 39.954 25.2815 40.762 24.7535 41.5517C23.9624 42.7292 22.558 43.8201 20.7153 44.6025C18.8767 45.3842 16.617 45.8527 14.1775 45.8527C10.9211 45.8527 7.98733 45.0145 5.94705 43.726C4.92442 43.0855 4.1252 42.334 3.5973 41.5517C3.06836 40.762 2.80614 39.954 2.80211 39.1078V36.0625C3.84152 37.2131 5.25939 38.1716 6.9303 38.88C9.01792 39.7659 11.5051 40.2726 14.1775 40.2726C17.7385 40.2726 20.9688 39.3739 23.3655 37.8704C24.2074 37.3467 24.942 36.7412 25.5479 36.0664V39.1078ZM25.5479 33.4163C25.5224 33.4808 25.4962 33.5406 25.4619 33.6051C25.3463 33.8632 25.2041 34.1119 25.0364 34.3612C24.6758 34.9023 24.1902 35.4138 23.6148 35.8903L7.3427 26.371C7.44152 26.3279 7.5363 26.2762 7.63483 26.2378C9.47336 25.4561 11.7331 24.9877 14.1776 24.9877C15.1395 24.9877 16.0721 25.0609 16.961 25.1987C19.0832 25.5206 20.9645 26.2076 22.4035 27.1095C22.5796 27.217 22.7473 27.3334 22.906 27.4496C23.6835 28.0035 24.2979 28.6178 24.7317 29.2584C24.7405 29.2664 24.7489 29.2751 24.7536 29.2832C25.2816 30.0743 25.548 30.8815 25.548 31.7277V33.4163H25.5479ZM42.3528 35.1469C40.7377 36.7586 38.6366 37.5611 36.5231 37.5611C34.4055 37.5611 32.3052 36.762 30.6897 35.1469L30.6854 35.1429L27.6957 32.1875V31.7278C27.6957 30.4131 27.2663 29.1676 26.5357 28.0849C25.6168 26.7319 24.2551 25.6108 22.5967 24.7518C22.803 24.2148 23.0649 23.63 23.3872 23.0298C24.2979 21.3192 25.664 19.4635 27.4726 18.0379C29.2722 16.6157 31.4849 15.6021 34.2211 15.4468L42.3485 23.4841H42.3528C43.9636 25.0992 44.7668 27.2044 44.7668 29.3175C44.7668 31.4314 43.9636 33.5365 42.3528 35.1469Z" fill="#343A40"/>
</g>
<defs>
<clipPath id="clip0_332_385">
<rect width="48" height="48" fill="white"/>
</clipPath>
</defs>
</svg>
