<svg width="48" height="48" viewBox="0 0 48 48" fill="none" xmlns="http://www.w3.org/2000/svg">
<path d="M41.5109 6.25753C40.4978 4.52316 38.6572 2.94666 35.8257 1.82288C32.9895 0.6975 29.1507 0.0015 23.9993 0C17.1342 0.0045 12.5903 1.23441 9.66725 3.08672C8.2086 4.01297 7.163 5.10272 6.48754 6.25753C5.81207 7.41084 5.51422 8.62012 5.51563 9.74906V34.0558C5.51563 37.9611 8.68054 41.1289 12.5902 41.1304H14.6711L9.77929 48H13.689L14.8629 46.0982H33.1356L34.3094 48H38.2206L33.3287 41.1304H35.4097C39.3193 41.1289 42.4828 37.9611 42.4843 34.0558V9.74906C42.4843 8.62012 42.1863 7.41084 41.5109 6.25753ZM15.9956 44.2636L17.1945 42.3228H30.8053L32.0044 44.2636H15.9956ZM40.219 34.0558C40.2176 35.3861 39.6822 36.5822 38.8106 37.4559C37.9375 38.3283 36.7415 38.8643 35.4097 38.8651H12.5903C11.2586 38.8643 10.0625 38.3283 9.18941 37.4559C8.31632 36.5822 7.78091 35.3861 7.78091 34.0558V9.74906C7.78091 9.01247 7.96972 8.21316 8.44316 7.40128C9.15397 6.18825 10.53 4.91625 13.0106 3.92887C15.4867 2.943 19.0528 2.26453 23.9993 2.26613C30.5989 2.26238 34.7312 3.47475 37.1175 4.99819C38.3136 5.75981 39.0805 6.59025 39.5554 7.40137C40.0303 8.21325 40.2177 9.01256 40.2191 9.74916V34.0558H40.219Z" fill="#343A40"/>
<path d="M17.7104 9.51798H30.2874C31.1236 9.51798 31.802 8.84102 31.802 8.00336C31.802 7.16795 31.1236 6.49023 30.2874 6.49023H17.7104C16.8742 6.49023 16.1973 7.16795 16.1973 8.00336C16.1973 8.84102 16.8742 9.51798 17.7104 9.51798Z" fill="#343A40"/>
<path d="M15.001 34.8243C16.0436 34.8243 16.8888 33.9792 16.8888 32.9366C16.8888 31.894 16.0436 31.0488 15.001 31.0488C13.9585 31.0488 13.1133 31.894 13.1133 32.9366C13.1133 33.9792 13.9585 34.8243 15.001 34.8243Z" fill="#343A40"/>
<path d="M32.9991 34.8243C34.0417 34.8243 34.8868 33.9792 34.8868 32.9366C34.8868 31.894 34.0417 31.0488 32.9991 31.0488C31.9565 31.0488 31.1113 31.894 31.1113 32.9366C31.1113 33.9792 31.9565 34.8243 32.9991 34.8243Z" fill="#343A40"/>
<path d="M22.4541 14.4062H12.377V23.6237H22.4541V14.4062Z" fill="#343A40"/>
<path d="M35.6227 14.4062H25.0957V23.6237H35.6227V14.4062Z" fill="#343A40"/>
</svg>
