<svg width="53" height="51" viewBox="0 0 53 51" fill="none" xmlns="http://www.w3.org/2000/svg">
<g clip-path="url(#clip0_421_1452)">
<path d="M50.0501 44.8318H49.3946V44.2149V41.4392H46.4447H45.7891V40.8224V38.0468H42.8392H39.6271V23.6164L47.1986 32.9029L50.1633 30.7629L25.0816 0L0 30.7629L2.96469 32.9029L10.5213 23.6345V42.3028V47.6692H8.9481V51H15.4379V47.6692H13.4713V42.3028H36.6772V47.6692H34.9073V51H36.6772H39.6272H41.3971V47.6692H39.6272V42.3028V40.8224H42.8393V41.4392V44.2149H45.7892H46.4448V44.8318V47.6075H49.3947H50.0502V51H53V47.6075V44.8318H50.0501ZM24.2139 37.3066H16.3966V34.1608H24.2139V37.3066ZM24.2139 32.4954H16.3966V29.3496H24.2139V32.4954ZM24.2139 27.6842H16.3966V24.5385H24.2139V27.6842ZM33.8011 37.3066H25.9838V34.1608H33.8011V37.3066ZM33.8011 32.4954H25.9838V29.3496H33.8011V32.4954ZM33.8011 27.6842H25.9838V24.5385H33.8011V27.6842Z" fill="#4B4B4B"/>
<path d="M11.5048 13.8067L16.028 8.81416V3.44412H17.0113V0.113281H10.5215V3.44412H11.5048V13.8067Z" fill="#4B4B4B"/>
</g>
<defs>
<clipPath id="clip0_421_1452">
<rect width="53" height="51" fill="white"/>
</clipPath>
</defs>
</svg>
