<svg width="48" height="48" viewBox="0 0 48 48" fill="none" xmlns="http://www.w3.org/2000/svg">
<path d="M24.1618 43.8398H23.834C23.6846 43.8398 23.5625 43.9628 23.5625 44.113L23.416 47.6367C23.4153 47.8377 23.5776 47.9994 23.7779 48.0008H24.2135C24.4138 47.9993 24.5762 47.8377 24.5762 47.6367L24.432 44.113C24.4319 43.9628 24.312 43.8398 24.1618 43.8398Z" fill="#343A40"/>
<path d="M28.7223 42.7316C28.6479 42.6018 28.481 42.557 28.3505 42.6321L28.0667 42.7945C27.9377 42.8697 27.8921 43.0366 27.9695 43.1663L29.6031 46.2917C29.7025 46.4646 29.9256 46.5245 30.0986 46.4253L30.4757 46.2082C30.6486 46.1081 30.7085 45.8865 30.6077 45.7134L28.7223 42.7316Z" fill="#343A40"/>
<path d="M34.8721 41.03L31.7461 39.3927C31.6171 39.3167 31.4516 39.3608 31.375 39.4906L31.2119 39.7735C31.1375 39.9032 31.1815 40.0695 31.312 40.1453L34.2909 42.0346C34.4639 42.1348 34.6862 42.0756 34.787 41.9011L35.0026 41.5263C35.1042 41.3518 35.0444 41.1294 34.8721 41.03Z" fill="#343A40"/>
<path d="M16.626 39.4847C16.5517 39.3535 16.3847 39.3087 16.2557 39.3846L13.1289 41.0204C12.9559 41.1198 12.8952 41.3421 12.9962 41.5151L13.2132 41.8915C13.3126 42.0652 13.535 42.1252 13.7094 42.025L16.6898 40.138C16.8195 40.0629 16.8642 39.8975 16.7884 39.7661L16.626 39.4847Z" fill="#343A40"/>
<path d="M19.9312 42.791L19.6489 42.6286C19.5184 42.5527 19.353 42.5983 19.2778 42.7273L17.3862 45.707C17.2861 45.8807 17.3468 46.1022 17.5197 46.2024L17.896 46.4194C18.0706 46.5196 18.2914 46.4604 18.3923 46.2874L20.0296 43.1629C20.1057 43.0338 20.0617 42.8661 19.9312 42.791Z" fill="#343A40"/>
<path d="M18.2831 31.0723C18.2831 34.2249 20.8469 36.7895 23.9995 36.7895C27.1506 36.7895 29.7159 34.2248 29.7166 31.0737C29.7166 30.7582 29.6825 30.4486 29.6324 30.1435H43.7498L28.7879 15.779V11.6613H24.8978V0H23.1018V11.6612H19.2125V15.7789L4.25 30.1435H18.3669C18.3172 30.4487 18.2831 30.7574 18.2831 31.0723ZM28.3949 31.0738C28.3949 33.4958 26.4229 35.4685 23.9995 35.4685C21.5753 35.4685 19.6025 33.4958 19.6041 31.0723C19.6041 30.7559 19.6405 30.4456 19.705 30.1436H28.294C28.3588 30.4456 28.3949 30.7567 28.3949 31.0738Z" fill="#343A40"/>
</svg>
